%TF.GenerationSoftware,KiCad,Pcbnew,(6.0.0-rc1-114-gb471945224)*%
%TF.CreationDate,2023-01-31T08:44:57+01:00*%
%TF.ProjectId,HB-F1XD-keyboard,48422d46-3158-4442-9d6b-6579626f6172,1*%
%TF.SameCoordinates,Original*%
%TF.FileFunction,Soldermask,Top*%
%TF.FilePolarity,Negative*%
%FSLAX46Y46*%
G04 Gerber Fmt 4.6, Leading zero omitted, Abs format (unit mm)*
G04 Created by KiCad (PCBNEW (6.0.0-rc1-114-gb471945224)) date 2023-01-31 08:44:57*
%MOMM*%
%LPD*%
G01*
G04 APERTURE LIST*
G04 Aperture macros list*
%AMRoundRect*
0 Rectangle with rounded corners*
0 $1 Rounding radius*
0 $2 $3 $4 $5 $6 $7 $8 $9 X,Y pos of 4 corners*
0 Add a 4 corners polygon primitive as box body*
4,1,4,$2,$3,$4,$5,$6,$7,$8,$9,$2,$3,0*
0 Add four circle primitives for the rounded corners*
1,1,$1+$1,$2,$3*
1,1,$1+$1,$4,$5*
1,1,$1+$1,$6,$7*
1,1,$1+$1,$8,$9*
0 Add four rect primitives between the rounded corners*
20,1,$1+$1,$2,$3,$4,$5,0*
20,1,$1+$1,$4,$5,$6,$7,0*
20,1,$1+$1,$6,$7,$8,$9,0*
20,1,$1+$1,$8,$9,$2,$3,0*%
%AMFreePoly0*
4,1,236,0.778830,0.297028,0.795918,0.290736,0.796367,0.289764,0.797355,0.289355,0.804325,0.272529,0.811960,0.255993,0.835391,-0.331408,0.915062,-0.756601,0.915202,-0.756880,1.021959,-0.891360,1.140429,-0.982697,1.240541,-1.011190,1.241291,-1.011784,1.242217,-1.012032,1.286316,-1.045871,1.287068,-1.047173,1.288037,-1.048322,1.321120,-1.152284,1.321080,-1.152757,1.321316,-1.153170,
1.343887,-1.330924,1.343833,-1.331122,1.343921,-1.331308,1.356480,-1.586524,1.356446,-1.586619,1.356486,-1.586712,1.359667,-1.860050,1.359634,-1.860133,1.359666,-1.860215,1.354475,-2.102246,1.354399,-2.102418,1.354455,-2.102597,1.339150,-2.269052,1.338921,-2.269488,1.338976,-2.269977,1.320000,-2.335906,1.320000,-2.420413,1.325919,-2.426782,1.326386,-2.428036,1.327145,-2.429137,
1.339280,-2.485736,1.339219,-2.486071,1.339374,-2.486373,1.347927,-2.589955,1.347887,-2.590081,1.347941,-2.590201,1.353165,-2.748331,1.353143,-2.748389,1.353168,-2.748447,1.355316,-2.968693,1.355304,-2.968723,1.355316,-2.968753,1.354641,-3.258683,1.354634,-3.258699,1.354641,-3.258715,1.351502,-3.616084,1.351496,-3.616099,1.351501,-3.616112,1.346994,-3.927495,1.346986,-3.927513,
1.346994,-3.927534,1.340701,-4.211352,1.340691,-4.211374,1.340700,-4.211397,1.333042,-4.456617,1.333027,-4.456649,1.333039,-4.456681,1.324435,-4.652266,1.324409,-4.652323,1.324429,-4.652383,1.315298,-4.787300,1.315206,-4.787486,1.315256,-4.787685,1.306017,-4.850895,1.305546,-4.851685,1.305440,-4.852602,1.303848,-4.855465,1.302433,-4.856588,1.301084,-4.857770,1.244358,-4.876999,
1.243906,-4.876969,1.243519,-4.877205,1.127101,-4.895271,1.126924,-4.895228,1.126764,-4.895311,0.975579,-4.908371,0.975506,-4.908348,0.975435,-4.908382,0.971680,-4.908597,0.971678,-4.908596,0.971676,-4.908597,0.677616,-4.925213,0.677482,-4.925166,0.677351,-4.925221,0.675704,-4.924545,0.674003,-4.923951,0.673941,-4.923822,0.673810,-4.923768,0.673122,-4.922123,0.672342,-4.920503,
0.672389,-4.920369,0.672334,-4.920237,0.669786,-4.148683,0.669786,-4.148682,0.669067,-3.931210,0.669068,-3.931207,0.669067,-3.931204,0.668375,-3.609224,0.668377,-3.609219,0.668375,-3.609214,0.668320,-3.277988,0.668322,-3.277984,0.668320,-3.277979,0.668857,-2.959533,0.668859,-2.959528,0.668857,-2.959522,0.669945,-2.675879,0.669948,-2.675871,0.669945,-2.675863,0.671540,-2.449049,
0.671544,-2.449041,0.671540,-2.449032,0.672040,-2.401426,0.670718,-2.170860,0.662141,-1.965058,0.647584,-1.804813,0.630514,-1.716860,0.583823,-1.575387,-0.002577,-1.574042,-0.214992,-1.576031,-0.393341,-1.582417,-0.522268,-1.592268,-0.585506,-1.604396,-0.589062,-1.607876,-0.624179,-1.646730,-0.625208,-1.647218,-0.626022,-1.648016,-0.675467,-1.667905,-0.675497,-1.667905,-0.675518,-1.667925,
-0.702397,-1.678397,-0.721927,-1.700027,-0.736540,-1.745086,-0.746593,-1.825012,-0.752761,-1.950215,-0.755976,-2.131236,-0.757229,-2.378927,-0.757466,-2.588959,-0.757470,-2.588968,-0.757466,-2.588978,-0.758822,-2.867696,-0.758831,-2.867717,-0.758822,-2.867740,-0.762342,-3.127049,-0.762353,-3.127074,-0.762343,-3.127099,-0.767641,-3.351687,-0.767658,-3.351724,-0.767644,-3.351761,-0.774337,-3.526319,
-0.774373,-3.526396,-0.774345,-3.526479,-0.782046,-3.635694,-0.782121,-3.635845,-0.782078,-3.636008,-0.784216,-3.651916,-0.784256,-3.651986,-0.784238,-3.652065,-0.810478,-3.810815,-0.811287,-3.812116,-0.811875,-3.813536,-0.812272,-3.813701,-0.812499,-3.814065,-0.813993,-3.814413,-0.815411,-3.815000,-1.427488,-3.815000,-1.429030,-3.814362,-1.430632,-3.813889,-1.430766,-3.813643,-1.431024,-3.813536,
-1.431664,-3.811991,-1.432460,-3.810526,-1.444270,-3.699000,-1.444434,-3.698811,-1.444376,-3.697999,-1.445609,-3.686358,-1.447000,-3.683000,-1.447000,-3.673223,-1.458237,-3.567110,-1.458199,-3.566980,-1.458257,-3.566858,-1.464207,-3.458947,-1.464175,-3.458857,-1.464214,-3.458769,-1.466980,-3.316208,-1.467676,-3.280392,-1.467661,-3.280354,-1.467677,-3.280316,-1.468661,-3.045636,-1.468651,-3.045612,
-1.468661,-3.045588,-1.467536,-2.836306,-1.467172,-2.768768,-1.467164,-2.768749,-1.467172,-2.768730,-1.463221,-2.463934,-1.463214,-2.463917,-1.463220,-2.463900,-1.457487,-2.174085,-1.457484,-2.174077,-1.457487,-2.174068,-1.430935,-1.025087,-1.430379,-1.023827,-1.430126,-1.022473,-1.429631,-1.022134,-1.429389,-1.021586,-1.428103,-1.021088,-1.426968,-1.020311,-1.254603,-0.983949,-1.119857,-0.936739,
-1.040974,-0.855952,-1.029230,-0.833674,-1.028980,-0.833466,-1.028910,-0.833148,-0.971378,-0.750570,-0.970447,-0.749973,-0.969771,-0.749095,-0.911338,-0.715437,-0.860010,-0.679984,-0.824412,-0.601341,-0.812000,-0.568362,-0.812000,0.254000,-0.797355,0.289355,-0.762000,0.304000,0.762000,0.304000,0.778830,0.297028,0.778830,0.297028,$1*%
%AMFreePoly1*
4,1,198,-0.781429,4.809115,-0.779677,4.808416,-0.779663,4.808384,-0.779630,4.808370,-0.778913,4.806638,-0.778166,4.804900,-0.757000,3.196233,-0.757001,3.196231,-0.751426,2.833470,-0.751426,2.833469,-0.744703,2.495963,-0.737142,2.193492,-0.737141,2.193490,-0.729047,1.935621,-0.720734,1.732158,-0.712517,1.592888,-0.704770,1.527830,-0.704381,1.526780,-0.679535,1.502292,-0.624276,1.485795,
-0.524390,1.476894,-0.367134,1.474851,-0.139639,1.478607,-0.139638,1.478608,-0.116136,1.479171,-0.116135,1.479171,0.095057,1.487185,0.276404,1.499443,0.410440,1.514358,0.479545,1.530199,0.481913,1.531757,0.495094,1.581707,0.511326,1.705874,0.517879,1.774178,0.517879,1.774179,0.529046,1.890571,0.547146,2.123453,0.564549,2.392418,0.564550,2.392419,0.575455,2.590136,
0.575454,2.590138,0.590829,2.875159,0.590836,2.875173,0.590831,2.875187,0.606038,3.131132,0.606046,3.131148,0.606040,3.131166,0.620261,3.346218,0.620273,3.346243,0.620265,3.346269,0.632684,3.508608,0.632712,3.508664,0.632694,3.508725,0.642493,3.606535,0.642620,3.606772,0.642569,3.607036,0.647409,3.630753,0.647943,3.631544,0.648119,3.632484,0.648971,3.633067,
0.649550,3.633925,0.650489,3.634107,0.651277,3.634646,0.700607,3.645038,0.700964,3.644971,0.701289,3.645133,0.810221,3.652723,0.810339,3.652684,0.810453,3.652734,0.934138,3.655616,0.934306,3.655551,0.934474,3.655612,1.106661,3.648032,1.107173,3.647793,1.107734,3.647867,1.205455,3.621708,1.206427,3.620962,1.207576,3.620531,1.233341,3.596447,1.234041,3.594906,
1.234883,3.593446,1.242211,3.537746,1.242148,3.537509,1.242250,3.537286,1.247219,3.407741,1.247196,3.407679,1.247223,3.407616,1.249794,3.215020,1.249781,3.214987,1.249794,3.214956,1.249928,2.970099,1.249919,2.970078,1.249928,2.970056,1.247587,2.683728,1.247579,2.683709,1.247586,2.683692,1.242732,2.366686,1.242727,2.366675,1.242732,2.366663,1.239792,2.220292,
1.239791,2.220289,1.239792,2.220285,1.211499,0.907135,1.210743,0.905415,1.210035,0.903707,1.051356,0.745079,0.962149,0.648760,0.905085,0.573515,0.893589,0.546938,0.892977,0.546345,0.892685,0.545543,0.858710,0.508502,0.857207,0.507802,0.855793,0.506941,0.831098,0.503106,0.788420,0.490936,0.757256,0.445879,0.732919,0.351731,0.712425,0.195233,0.698293,0.040794,
0.698293,0.040793,0.670143,-0.296749,0.669353,-0.298282,0.668696,-0.299869,0.668492,-0.299954,0.668390,-0.300151,0.666747,-0.300676,0.665160,-0.301333,-0.043482,-0.301333,-0.043485,-0.301332,-0.043489,-0.301333,-0.303318,-0.300986,-0.303342,-0.300976,-0.303367,-0.300986,-0.490914,-0.298876,-0.490993,-0.298842,-0.491072,-0.298871,-0.618720,-0.293389,-0.618929,-0.293292,-0.619152,-0.293352,
-0.699283,-0.282893,-0.699805,-0.282593,-0.700407,-0.282611,-0.745407,-0.265568,-0.746293,-0.264735,-0.747386,-0.264199,-0.769637,-0.238966,-0.769961,-0.238021,-0.770621,-0.237269,-0.782385,-0.202694,-0.782354,-0.202222,-0.782597,-0.201817,-0.796349,-0.109127,-0.796297,-0.108918,-0.796392,-0.108725,-0.805889,0.033949,-0.805851,0.034061,-0.805899,0.034169,-0.808754,0.160899,-0.815080,0.322288,
-0.839398,0.432652,-0.891250,0.526599,-0.924592,0.570554,-1.005318,0.659178,-1.070770,0.709983,-1.086686,0.714888,-1.087138,0.715262,-1.087721,0.715340,-1.143184,0.747479,-1.143721,0.748180,-1.144505,0.748588,-1.206300,0.822122,-1.281907,0.897881,-1.357208,0.926419,-1.376282,0.928207,-1.377330,0.928760,-1.378495,0.928964,-1.394829,0.939335,-1.395598,0.940429,-1.396612,0.941301,
-1.409807,0.967415,-1.409858,0.968086,-1.410237,0.968640,-1.410892,0.971755,-1.432355,0.980645,-1.447000,1.016000,-1.447000,4.318000,-1.432355,4.353355,-1.425718,4.356104,-1.423166,4.804863,-1.422415,4.806648,-1.421702,4.808370,-1.421688,4.808376,-1.421682,4.808390,-1.419900,4.809116,-1.418166,4.809834,-0.783166,4.809834,-0.781429,4.809115,-0.781429,4.809115,$1*%
G04 Aperture macros list end*
%ADD10RoundRect,0.700000X-1.343503X0.353553X0.353553X-1.343503X1.343503X-0.353553X-0.353553X1.343503X0*%
%ADD11RoundRect,0.700000X-1.200000X-0.700000X1.200000X-0.700000X1.200000X0.700000X-1.200000X0.700000X0*%
%ADD12FreePoly0,180.000000*%
%ADD13FreePoly1,180.000000*%
%ADD14R,0.300000X1.200000*%
%ADD15R,2.400000X2.400000*%
G04 APERTURE END LIST*
D10*
%TO.C,SW1*%
X221538253Y-116614834D03*
X216585253Y-121567834D03*
%TD*%
%TO.C,SW3*%
X69698978Y-116667046D03*
X64745978Y-121620046D03*
%TD*%
%TO.C,SW4*%
X88647370Y-116583939D03*
X83694370Y-121536939D03*
%TD*%
%TO.C,SW2*%
X50376604Y-116667046D03*
X45423604Y-121620046D03*
%TD*%
D11*
%TO.C,SW89*%
X274405702Y-99377500D03*
X274405702Y-92392500D03*
%TD*%
%TO.C,SW68*%
X217834157Y-99377500D03*
X217834157Y-92392500D03*
%TD*%
%TO.C,SW67*%
X192360400Y-99377500D03*
X192360400Y-92392500D03*
%TD*%
%TO.C,SW66*%
X167005000Y-99377500D03*
X167005000Y-92392500D03*
%TD*%
%TO.C,SW61*%
X248631253Y-99377500D03*
X248631253Y-92392500D03*
%TD*%
%TO.C,SW58*%
X136102337Y-99377500D03*
X136102337Y-92392500D03*
%TD*%
%TO.C,SW57*%
X110617931Y-99377500D03*
X110617931Y-92392500D03*
%TD*%
D12*
%TO.C,SW90*%
X296789260Y-98870333D03*
D13*
X297805260Y-93028333D03*
%TD*%
D14*
%TO.C,J3*%
X329576000Y-81723000D03*
X329076000Y-81723000D03*
X328576000Y-81723000D03*
X328076000Y-81723000D03*
X327576000Y-81723000D03*
X327076000Y-81723000D03*
X326576000Y-81723000D03*
X326076000Y-81723000D03*
X325576000Y-81723000D03*
X325076000Y-81723000D03*
X324576000Y-81723000D03*
X324076000Y-81723000D03*
X323576000Y-81723000D03*
X323076000Y-81723000D03*
X322576000Y-81723000D03*
X322076000Y-81723000D03*
X321576000Y-81723000D03*
X321076000Y-81723000D03*
X320576000Y-81723000D03*
X320076000Y-81723000D03*
X319576000Y-81723000D03*
X319076000Y-81723000D03*
X318576000Y-81723000D03*
X318076000Y-81723000D03*
X317576000Y-81723000D03*
X317076000Y-81723000D03*
X316576000Y-81723000D03*
X316076000Y-81723000D03*
X315576000Y-81723000D03*
X315076000Y-81723000D03*
D15*
X331676000Y-79023000D03*
X312976000Y-79023000D03*
%TD*%
D10*
%TO.C,SW39*%
X60050433Y-135789787D03*
X55097433Y-140742787D03*
%TD*%
%TO.C,SW91*%
X290651390Y-173760966D03*
X285698390Y-178713966D03*
%TD*%
%TO.C,SW5*%
X107578732Y-116670901D03*
X102625732Y-121623901D03*
%TD*%
%TO.C,SW6*%
X126627446Y-116624942D03*
X121674446Y-121577942D03*
%TD*%
%TO.C,SW7*%
X145678309Y-116576834D03*
X140725309Y-121529834D03*
%TD*%
%TO.C,SW8*%
X164777281Y-116432509D03*
X159824281Y-121385509D03*
%TD*%
%TO.C,SW9*%
X183525994Y-116539971D03*
X178572994Y-121492971D03*
%TD*%
%TO.C,SW10*%
X202463773Y-116354307D03*
X197510773Y-121307307D03*
%TD*%
%TO.C,SW11*%
X240548897Y-116557916D03*
X235595897Y-121510916D03*
%TD*%
%TO.C,SW12*%
X259388786Y-116500998D03*
X254435786Y-121453998D03*
%TD*%
%TO.C,SW13*%
X278577014Y-116393873D03*
X273624014Y-121346873D03*
%TD*%
%TO.C,SW14*%
X250118395Y-135685175D03*
X245165395Y-140638175D03*
%TD*%
%TO.C,SW15*%
X269248253Y-135540845D03*
X264295253Y-140493845D03*
%TD*%
%TO.C,SW16*%
X235832158Y-154602208D03*
X230879158Y-159555208D03*
%TD*%
%TO.C,SW17*%
X255157718Y-154670703D03*
X250204718Y-159623703D03*
%TD*%
%TO.C,SW18*%
X273776306Y-154377150D03*
X268823306Y-159330150D03*
%TD*%
%TO.C,SW19*%
X207296675Y-173625187D03*
X202343675Y-178578187D03*
%TD*%
%TO.C,SW20*%
X226586998Y-173625187D03*
X221633998Y-178578187D03*
%TD*%
%TO.C,SW21*%
X245442975Y-173719338D03*
X240489975Y-178672338D03*
%TD*%
%TO.C,SW22*%
X264396367Y-173719338D03*
X259443367Y-178672338D03*
%TD*%
%TO.C,SW23*%
X64736405Y-154688725D03*
X59783405Y-159641725D03*
%TD*%
%TO.C,SW24*%
X150371646Y-173768134D03*
X145418646Y-178721134D03*
%TD*%
%TO.C,SW25*%
X112404647Y-173832118D03*
X107451647Y-178785118D03*
%TD*%
%TO.C,SW26*%
X102836057Y-154562343D03*
X97883057Y-159515343D03*
%TD*%
%TO.C,SW27*%
X97957083Y-135577440D03*
X93004083Y-140530440D03*
%TD*%
%TO.C,SW28*%
X121832251Y-154723921D03*
X116879251Y-159676921D03*
%TD*%
%TO.C,SW29*%
X140933322Y-154929542D03*
X135980322Y-159882542D03*
%TD*%
%TO.C,SW30*%
X159904880Y-154744152D03*
X154951880Y-159697152D03*
%TD*%
%TO.C,SW31*%
X193191622Y-135525408D03*
X188238622Y-140478408D03*
%TD*%
%TO.C,SW32*%
X178777745Y-154670061D03*
X173824745Y-159623061D03*
%TD*%
%TO.C,SW33*%
X197872287Y-154637232D03*
X192919287Y-159590232D03*
%TD*%
%TO.C,SW34*%
X216898002Y-154651133D03*
X211945002Y-159604133D03*
%TD*%
%TO.C,SW35*%
X188698382Y-173711691D03*
X183745382Y-178664691D03*
%TD*%
%TO.C,SW36*%
X169494563Y-173884698D03*
X164541563Y-178837698D03*
%TD*%
%TO.C,SW37*%
X212005455Y-135734100D03*
X207052455Y-140687100D03*
%TD*%
%TO.C,SW38*%
X230841760Y-135636250D03*
X225888760Y-140589250D03*
%TD*%
%TO.C,SW40*%
X116911730Y-135625548D03*
X111958730Y-140578548D03*
%TD*%
%TO.C,SW41*%
X83894690Y-154867634D03*
X78941690Y-159820634D03*
%TD*%
%TO.C,SW42*%
X136203135Y-135577440D03*
X131250135Y-140530440D03*
%TD*%
%TO.C,SW43*%
X174087199Y-135673721D03*
X169134199Y-140626721D03*
%TD*%
%TO.C,SW44*%
X131487580Y-173674408D03*
X126534580Y-178627408D03*
%TD*%
%TO.C,SW45*%
X78998825Y-135582019D03*
X74045825Y-140535019D03*
%TD*%
%TO.C,SW46*%
X93479425Y-173674408D03*
X88526425Y-178627408D03*
%TD*%
%TO.C,SW47*%
X155124913Y-135726247D03*
X150171913Y-140679247D03*
%TD*%
%TO.C,SW48*%
X74591228Y-173824687D03*
X69638228Y-178777687D03*
%TD*%
%TO.C,SW49*%
X43578533Y-173995908D03*
X38625533Y-178948908D03*
%TD*%
%TO.C,SW50*%
X38876783Y-154688725D03*
X33923783Y-159641725D03*
%TD*%
%TO.C,SW51*%
X95778934Y-192744177D03*
X90825934Y-197697177D03*
%TD*%
%TO.C,SW52*%
X69713743Y-192769369D03*
X64760743Y-197722369D03*
%TD*%
%TO.C,SW53*%
X236003666Y-192786566D03*
X231050666Y-197739566D03*
%TD*%
%TO.C,SW60*%
X36323389Y-135831340D03*
X31370389Y-140784340D03*
%TD*%
%TO.C,SW62*%
X297708624Y-116393873D03*
X292755624Y-121346873D03*
%TD*%
%TO.C,SW63*%
X259695407Y-192534527D03*
X254742407Y-197487527D03*
%TD*%
%TO.C,SW65*%
X169667571Y-192915510D03*
X164714571Y-197868510D03*
%TD*%
%TO.C,SW69*%
X331889093Y-189829349D03*
X326936093Y-194782349D03*
%TD*%
%TO.C,SW70*%
X359755510Y-180071923D03*
X354802510Y-185024923D03*
%TD*%
%TO.C,SW71*%
X359699329Y-199622987D03*
X354746329Y-204575987D03*
%TD*%
%TO.C,SW72*%
X387704335Y-189911757D03*
X382751335Y-194864757D03*
%TD*%
%TO.C,SW73*%
X388171250Y-116299224D03*
X383218250Y-121252224D03*
%TD*%
%TO.C,SW74*%
X388174750Y-154369960D03*
X383221750Y-159322960D03*
%TD*%
%TO.C,SW75*%
X388000435Y-97398060D03*
X383047435Y-102351060D03*
%TD*%
%TO.C,SW76*%
X331002821Y-154369960D03*
X326049821Y-159322960D03*
%TD*%
%TO.C,SW77*%
X330912787Y-135327656D03*
X325959787Y-140280656D03*
%TD*%
%TO.C,SW78*%
X350001209Y-135371573D03*
X345048209Y-140324573D03*
%TD*%
%TO.C,SW79*%
X369133547Y-135371573D03*
X364180547Y-140324573D03*
%TD*%
%TO.C,SW80*%
X331012244Y-116356155D03*
X326059244Y-121309155D03*
%TD*%
%TO.C,SW81*%
X350027292Y-116299224D03*
X345074292Y-121252224D03*
%TD*%
%TO.C,SW82*%
X369156202Y-116242292D03*
X364203202Y-121195292D03*
%TD*%
%TO.C,SW83*%
X330955292Y-97511923D03*
X326002292Y-102464923D03*
%TD*%
%TO.C,SW84*%
X349913408Y-97454991D03*
X344960408Y-102407991D03*
%TD*%
%TO.C,SW85*%
X369156181Y-97398060D03*
X364203181Y-102351060D03*
%TD*%
%TO.C,SW86*%
X388175851Y-135326555D03*
X383222851Y-140279555D03*
%TD*%
%TO.C,SW87*%
X369177464Y-154369960D03*
X364224464Y-159322960D03*
%TD*%
%TO.C,SW88*%
X350135160Y-154369960D03*
X345182160Y-159322960D03*
%TD*%
D11*
%TO.C,SW56*%
X85251677Y-99377500D03*
X85251677Y-92392500D03*
%TD*%
%TO.C,SW55*%
X59689342Y-99377500D03*
X59689342Y-92392500D03*
%TD*%
%TO.C,SW54*%
X34190914Y-99377500D03*
X34190914Y-92392500D03*
%TD*%
D10*
%TO.C,SW59*%
X31428212Y-116750153D03*
X26475212Y-121703153D03*
%TD*%
%TO.C,SW64*%
X295466374Y-145041674D03*
X290513374Y-149994674D03*
%TD*%
M02*
