M48
; DRILL file {KiCad (6.0.0-rc1-114-gb471945224)} date 2023 January 31, Tuesday 08:44:53
; FORMAT={-:-/ absolute / inch / decimal}
; #@! TF.CreationDate,2023-01-31T08:44:53+01:00
; #@! TF.GenerationSoftware,Kicad,Pcbnew,(6.0.0-rc1-114-gb471945224)
; #@! TF.FileFunction,Plated,1,2,PTH
FMAT,2
INCH
; #@! TA.AperFunction,Plated,PTH,ViaDrill
T1C0.0157
%
G90
G05
T1
X1.225Y-4.275
X1.375Y-4.275
X1.425Y-4.8
X1.425Y-5.2
X1.55Y-5.9
X1.65Y-5.75
X1.7Y-6.625
X1.725Y-4.05
X1.775Y-4.975
X1.925Y-3.75
X1.95Y-6.95
X1.975Y-7.35
X2.0Y-4.35
X2.2Y-5.2
X2.2Y-3.75
X2.325Y-7.7
X2.375Y-7.35
X2.625Y-6.9
X2.675Y-6.225
X2.675Y-6.625
X2.95Y-7.1465
X3.025Y-5.0
X3.05Y-3.775
X3.05Y-7.25
X3.125Y-6.5
X3.125Y-7.075
X3.175Y-5.9
X3.25Y-5.525
X3.375Y-5.35
X3.425Y-7.65
X3.45Y-6.25
X3.45Y-6.75
X3.725Y-5.675
X4.05Y-5.525
X4.05Y-5.9
X4.15Y-5.0
X4.15Y-5.2138
X4.175Y-6.75
X4.25Y-6.2
X4.35Y-4.45
X4.45Y-6.5
X4.5Y-4.7
X4.6Y-3.8
X4.6Y-4.4
X4.625Y-6.85
X4.7Y-7.35
X4.75Y-6.925
X4.7965Y-6.3035
X4.825Y-6.4
X4.85Y-5.9
X4.95Y-4.925
X4.95Y-5.575
X5.025Y-6.6535
X5.15Y-5.3
X5.15Y-5.9
X5.15Y-6.25
X5.175Y-3.725
X5.3623Y-5.5377
X5.475Y-4.975
X5.5404Y-5.0346
X5.6Y-7.125
X5.6Y-7.3
X5.725Y-5.4
X5.725Y-6.3
X6.1Y-5.775
X6.275Y-7.25
X6.3Y-5.6
X6.375Y-7.65
X6.425Y-5.725
X6.55Y-4.1
X6.55Y-4.5
X6.65Y-5.4
X6.7472Y-3.9222
X6.775Y-7.325
X6.775Y-7.5
X6.8Y-3.725
X6.8Y-4.375
X6.95Y-3.775
X6.95Y-6.6785
X6.975Y-5.125
X6.975Y-5.2035
X7.05Y-4.95
X7.1465Y-6.475
X7.175Y-6.825
X7.225Y-5.6
X7.2644Y-5.6
X7.3Y-5.725
X7.5Y-6.0
X7.55Y-6.7
X7.575Y-5.6
X7.6Y-5.125
X7.6Y-5.2035
X7.625Y-7.2035
X7.675Y-4.4465
X7.675Y-4.55
X7.85Y-6.425
X7.875Y-6.3
X7.975Y-4.8
X8.2Y-6.125
X8.2Y-6.4535
X8.45Y-5.5
X8.45Y-5.95
X8.4549Y-4.8582
X8.5Y-6.975
X8.7Y-6.275
X8.8Y-4.05
X8.8Y-4.5
X8.9Y-6.575
X8.925Y-3.875
X8.925Y-4.85
X8.9843Y-6.3839
X9.0Y-7.575
X9.1Y-7.075
X9.2Y-4.55
X9.375Y-3.875
X9.425Y-5.95
X9.45Y-5.4
X9.5Y-4.25
X9.5Y-5.575
X9.5Y-6.6
X9.9Y-6.6
X9.975Y-6.95
X10.0Y-5.725
X10.125Y-5.525
X10.325Y-6.275
X10.325Y-6.45
X10.35Y-3.9
X10.45Y-4.7
X10.7Y-5.575
X10.7Y-6.725
X10.9Y-4.85
X10.9Y-5.25
X10.9715Y-6.125
X11.025Y-7.975
X11.025Y-4.2
X11.025Y-4.5
X11.025Y-7.775
X11.075Y-6.4
X11.1Y-4.95
X11.15Y-6.825
X11.175Y-5.25
X11.35Y-5.175
X11.375Y-7.325
X11.45Y-7.025
X11.525Y-4.975
X11.675Y-4.0
X11.75Y-4.35
X11.75Y-4.725
X11.75Y-5.5928
X11.8Y-4.5
X11.8Y-4.1
X11.85Y-3.525
X11.85Y-4.15
X11.95Y-3.55
X11.95Y-4.125
X12.05Y-3.525
X12.05Y-6.05
X12.1Y-5.075
X12.15Y-3.55
X12.15Y-5.1
X12.15Y-6.725
X12.2Y-5.025
X12.25Y-3.525
X12.3Y-5.45
X12.35Y-3.55
X12.4Y-6.4
X12.4Y-4.925
X12.45Y-3.525
X12.45Y-4.45
X12.45Y-6.275
X12.55Y-3.55
X12.55Y-7.45
X12.575Y-4.05
X12.65Y-3.525
X12.65Y-7.25
X12.725Y-3.8
X12.725Y-4.875
X12.725Y-6.4
X12.75Y-3.55
X12.775Y-4.225
X12.85Y-3.525
X12.925Y-5.85
X12.95Y-3.55
X13.225Y-5.175
X13.225Y-5.425
X13.3Y-4.7
X13.3Y-5.275
X13.3Y-7.125
X13.3504Y-3.4288
X13.375Y-6.175
X13.375Y-7.575
X13.4Y-4.075
X13.45Y-3.525
X13.5891Y-3.8391
X13.6Y-3.575
X13.7528Y-3.3722
X13.85Y-3.425
X13.8675Y-3.5825
X13.875Y-4.275
X14.0Y-5.7
X14.1Y-6.85
X14.15Y-3.825
X14.15Y-4.1
X14.15Y-5.675
X14.2Y-4.45
X14.2Y-5.375
X14.2Y-6.125
X14.2Y-4.625
X14.35Y-7.7
X14.6429Y-4.1
X14.6429Y-4.4
X14.675Y-6.275
X14.725Y-7.6
X14.75Y-4.875
X14.775Y-3.75
X14.775Y-4.225
X14.8Y-6.05
X14.825Y-3.65
X14.875Y-5.4
X14.925Y-5.825
X15.275Y-4.175
X15.275Y-4.95
X15.2823Y-4.4073
T0
M30
