%TF.GenerationSoftware,KiCad,Pcbnew,(6.0.0-rc1-114-gb471945224)*%
%TF.CreationDate,2023-01-31T08:44:57+01:00*%
%TF.ProjectId,HB-F1XD-keyboard,48422d46-3158-4442-9d6b-6579626f6172,1*%
%TF.SameCoordinates,Original*%
%TF.FileFunction,Legend,Top*%
%TF.FilePolarity,Positive*%
%FSLAX46Y46*%
G04 Gerber Fmt 4.6, Leading zero omitted, Abs format (unit mm)*
G04 Created by KiCad (PCBNEW (6.0.0-rc1-114-gb471945224)) date 2023-01-31 08:44:57*
%MOMM*%
%LPD*%
G01*
G04 APERTURE LIST*
%ADD10C,0.150000*%
%ADD11C,0.200000*%
%ADD12C,0.300000*%
%ADD13C,0.254000*%
G04 APERTURE END LIST*
D10*
X173226428Y-206275714D02*
X173155000Y-206347142D01*
X172940714Y-206418571D01*
X172797857Y-206418571D01*
X172583571Y-206347142D01*
X172440714Y-206204285D01*
X172369285Y-206061428D01*
X172297857Y-205775714D01*
X172297857Y-205561428D01*
X172369285Y-205275714D01*
X172440714Y-205132857D01*
X172583571Y-204990000D01*
X172797857Y-204918571D01*
X172940714Y-204918571D01*
X173155000Y-204990000D01*
X173226428Y-205061428D01*
X174726428Y-206275714D02*
X174655000Y-206347142D01*
X174440714Y-206418571D01*
X174297857Y-206418571D01*
X174083571Y-206347142D01*
X173940714Y-206204285D01*
X173869285Y-206061428D01*
X173797857Y-205775714D01*
X173797857Y-205561428D01*
X173869285Y-205275714D01*
X173940714Y-205132857D01*
X174083571Y-204990000D01*
X174297857Y-204918571D01*
X174440714Y-204918571D01*
X174655000Y-204990000D01*
X174726428Y-205061428D01*
X175369285Y-205847142D02*
X176512142Y-205847142D01*
X177726428Y-205632857D02*
X177940714Y-205704285D01*
X178012142Y-205775714D01*
X178083571Y-205918571D01*
X178083571Y-206132857D01*
X178012142Y-206275714D01*
X177940714Y-206347142D01*
X177797857Y-206418571D01*
X177226428Y-206418571D01*
X177226428Y-204918571D01*
X177726428Y-204918571D01*
X177869285Y-204990000D01*
X177940714Y-205061428D01*
X178012142Y-205204285D01*
X178012142Y-205347142D01*
X177940714Y-205490000D01*
X177869285Y-205561428D01*
X177726428Y-205632857D01*
X177226428Y-205632857D01*
X179012142Y-205704285D02*
X179012142Y-206418571D01*
X178512142Y-204918571D02*
X179012142Y-205704285D01*
X179512142Y-204918571D01*
X180012142Y-205847142D02*
X181155000Y-205847142D01*
X181869285Y-206418571D02*
X181869285Y-204918571D01*
X182726428Y-206418571D01*
X182726428Y-204918571D01*
X184297857Y-206275714D02*
X184226428Y-206347142D01*
X184012142Y-206418571D01*
X183869285Y-206418571D01*
X183655000Y-206347142D01*
X183512142Y-206204285D01*
X183440714Y-206061428D01*
X183369285Y-205775714D01*
X183369285Y-205561428D01*
X183440714Y-205275714D01*
X183512142Y-205132857D01*
X183655000Y-204990000D01*
X183869285Y-204918571D01*
X184012142Y-204918571D01*
X184226428Y-204990000D01*
X184297857Y-205061428D01*
X186083571Y-205847142D02*
X187226428Y-205847142D01*
X188940714Y-205418571D02*
X189297857Y-206418571D01*
X189655000Y-205418571D01*
X190155000Y-205061428D02*
X190226428Y-204990000D01*
X190369285Y-204918571D01*
X190726428Y-204918571D01*
X190869285Y-204990000D01*
X190940714Y-205061428D01*
X191012142Y-205204285D01*
X191012142Y-205347142D01*
X190940714Y-205561428D01*
X190083571Y-206418571D01*
X191012142Y-206418571D01*
X191940714Y-204918571D02*
X192083571Y-204918571D01*
X192226428Y-204990000D01*
X192297857Y-205061428D01*
X192369285Y-205204285D01*
X192440714Y-205490000D01*
X192440714Y-205847142D01*
X192369285Y-206132857D01*
X192297857Y-206275714D01*
X192226428Y-206347142D01*
X192083571Y-206418571D01*
X191940714Y-206418571D01*
X191797857Y-206347142D01*
X191726428Y-206275714D01*
X191655000Y-206132857D01*
X191583571Y-205847142D01*
X191583571Y-205490000D01*
X191655000Y-205204285D01*
X191726428Y-205061428D01*
X191797857Y-204990000D01*
X191940714Y-204918571D01*
X193012142Y-205061428D02*
X193083571Y-204990000D01*
X193226428Y-204918571D01*
X193583571Y-204918571D01*
X193726428Y-204990000D01*
X193797857Y-205061428D01*
X193869285Y-205204285D01*
X193869285Y-205347142D01*
X193797857Y-205561428D01*
X192940714Y-206418571D01*
X193869285Y-206418571D01*
X195297857Y-206418571D02*
X194440714Y-206418571D01*
X194869285Y-206418571D02*
X194869285Y-204918571D01*
X194726428Y-205132857D01*
X194583571Y-205275714D01*
X194440714Y-205347142D01*
X195940714Y-206275714D02*
X196012142Y-206347142D01*
X195940714Y-206418571D01*
X195869285Y-206347142D01*
X195940714Y-206275714D01*
X195940714Y-206418571D01*
X196583571Y-205061428D02*
X196655000Y-204990000D01*
X196797857Y-204918571D01*
X197155000Y-204918571D01*
X197297857Y-204990000D01*
X197369285Y-205061428D01*
X197440714Y-205204285D01*
X197440714Y-205347142D01*
X197369285Y-205561428D01*
X196512142Y-206418571D01*
X197440714Y-206418571D01*
X199226428Y-205847142D02*
X200369285Y-205847142D01*
X202155000Y-206347142D02*
X202369285Y-206418571D01*
X202726428Y-206418571D01*
X202869285Y-206347142D01*
X202940714Y-206275714D01*
X203012142Y-206132857D01*
X203012142Y-205990000D01*
X202940714Y-205847142D01*
X202869285Y-205775714D01*
X202726428Y-205704285D01*
X202440714Y-205632857D01*
X202297857Y-205561428D01*
X202226428Y-205490000D01*
X202155000Y-205347142D01*
X202155000Y-205204285D01*
X202226428Y-205061428D01*
X202297857Y-204990000D01*
X202440714Y-204918571D01*
X202797857Y-204918571D01*
X203012142Y-204990000D01*
X203940714Y-204918571D02*
X204083571Y-204918571D01*
X204226428Y-204990000D01*
X204297857Y-205061428D01*
X204369285Y-205204285D01*
X204440714Y-205490000D01*
X204440714Y-205847142D01*
X204369285Y-206132857D01*
X204297857Y-206275714D01*
X204226428Y-206347142D01*
X204083571Y-206418571D01*
X203940714Y-206418571D01*
X203797857Y-206347142D01*
X203726428Y-206275714D01*
X203655000Y-206132857D01*
X203583571Y-205847142D01*
X203583571Y-205490000D01*
X203655000Y-205204285D01*
X203726428Y-205061428D01*
X203797857Y-204990000D01*
X203940714Y-204918571D01*
X205726428Y-205418571D02*
X205726428Y-206418571D01*
X205083571Y-205418571D02*
X205083571Y-206204285D01*
X205155000Y-206347142D01*
X205297857Y-206418571D01*
X205512142Y-206418571D01*
X205655000Y-206347142D01*
X205726428Y-206275714D01*
X206440714Y-206418571D02*
X206440714Y-205418571D01*
X206440714Y-205704285D02*
X206512142Y-205561428D01*
X206583571Y-205490000D01*
X206726428Y-205418571D01*
X206869285Y-205418571D01*
X208012142Y-206347142D02*
X207869285Y-206418571D01*
X207583571Y-206418571D01*
X207440714Y-206347142D01*
X207369285Y-206275714D01*
X207297857Y-206132857D01*
X207297857Y-205704285D01*
X207369285Y-205561428D01*
X207440714Y-205490000D01*
X207583571Y-205418571D01*
X207869285Y-205418571D01*
X208012142Y-205490000D01*
X209226428Y-206347142D02*
X209083571Y-206418571D01*
X208797857Y-206418571D01*
X208655000Y-206347142D01*
X208583571Y-206204285D01*
X208583571Y-205632857D01*
X208655000Y-205490000D01*
X208797857Y-205418571D01*
X209083571Y-205418571D01*
X209226428Y-205490000D01*
X209297857Y-205632857D01*
X209297857Y-205775714D01*
X208583571Y-205918571D01*
X209940714Y-206418571D02*
X209940714Y-205418571D01*
X209940714Y-205704285D02*
X210012142Y-205561428D01*
X210083571Y-205490000D01*
X210226428Y-205418571D01*
X210369285Y-205418571D01*
X211083571Y-206418571D02*
X210940714Y-206347142D01*
X210869285Y-206275714D01*
X210797857Y-206132857D01*
X210797857Y-205704285D01*
X210869285Y-205561428D01*
X210940714Y-205490000D01*
X211083571Y-205418571D01*
X211297857Y-205418571D01*
X211440714Y-205490000D01*
X211512142Y-205561428D01*
X211583571Y-205704285D01*
X211583571Y-206132857D01*
X211512142Y-206275714D01*
X211440714Y-206347142D01*
X211297857Y-206418571D01*
X211083571Y-206418571D01*
X212226428Y-206418571D02*
X212226428Y-205418571D01*
X212226428Y-205704285D02*
X212297857Y-205561428D01*
X212369285Y-205490000D01*
X212512142Y-205418571D01*
X212655000Y-205418571D01*
D11*
%TO.C,SW1*%
X218954257Y-119395154D02*
X219049495Y-119395154D01*
X219144733Y-119442774D01*
X219192352Y-119490393D01*
X219239971Y-119585631D01*
X219287590Y-119776107D01*
X219287590Y-120014202D01*
X219239971Y-120204678D01*
X219192352Y-120299916D01*
X219144733Y-120347535D01*
X219049495Y-120395154D01*
X218954257Y-120395154D01*
X218859019Y-120347535D01*
X218811400Y-120299916D01*
X218763781Y-120204678D01*
X218716162Y-120014202D01*
X218716162Y-119776107D01*
X218763781Y-119585631D01*
X218811400Y-119490393D01*
X218859019Y-119442774D01*
X218954257Y-119395154D01*
%TO.C,SW3*%
X66876887Y-119542605D02*
X66924506Y-119494986D01*
X67019744Y-119447366D01*
X67257839Y-119447366D01*
X67353077Y-119494986D01*
X67400696Y-119542605D01*
X67448315Y-119637843D01*
X67448315Y-119733081D01*
X67400696Y-119875938D01*
X66829268Y-120447366D01*
X67448315Y-120447366D01*
%TO.C,SW4*%
X85777660Y-119364259D02*
X86396707Y-119364259D01*
X86063374Y-119745212D01*
X86206231Y-119745212D01*
X86301469Y-119792831D01*
X86349088Y-119840450D01*
X86396707Y-119935688D01*
X86396707Y-120173783D01*
X86349088Y-120269021D01*
X86301469Y-120316640D01*
X86206231Y-120364259D01*
X85920517Y-120364259D01*
X85825279Y-120316640D01*
X85777660Y-120269021D01*
%TO.C,SW2*%
X48125941Y-120447366D02*
X47554513Y-120447366D01*
X47840227Y-120447366D02*
X47840227Y-119447366D01*
X47744989Y-119590224D01*
X47649751Y-119685462D01*
X47554513Y-119733081D01*
D12*
%TO.C,SW89*%
X271139987Y-96256928D02*
X271139987Y-94732928D01*
X271720559Y-94732928D01*
X271865702Y-94805500D01*
X271938273Y-94878071D01*
X272010844Y-95023214D01*
X272010844Y-95240928D01*
X271938273Y-95386071D01*
X271865702Y-95458642D01*
X271720559Y-95531214D01*
X271139987Y-95531214D01*
X272591416Y-95821500D02*
X273317130Y-95821500D01*
X272446273Y-96256928D02*
X272954273Y-94732928D01*
X273462273Y-96256928D01*
X273970273Y-94732928D02*
X273970273Y-95966642D01*
X274042844Y-96111785D01*
X274115416Y-96184357D01*
X274260559Y-96256928D01*
X274550844Y-96256928D01*
X274695987Y-96184357D01*
X274768559Y-96111785D01*
X274841130Y-95966642D01*
X274841130Y-94732928D01*
X275494273Y-96184357D02*
X275711987Y-96256928D01*
X276074844Y-96256928D01*
X276219987Y-96184357D01*
X276292559Y-96111785D01*
X276365130Y-95966642D01*
X276365130Y-95821500D01*
X276292559Y-95676357D01*
X276219987Y-95603785D01*
X276074844Y-95531214D01*
X275784559Y-95458642D01*
X275639416Y-95386071D01*
X275566844Y-95313500D01*
X275494273Y-95168357D01*
X275494273Y-95023214D01*
X275566844Y-94878071D01*
X275639416Y-94805500D01*
X275784559Y-94732928D01*
X276147416Y-94732928D01*
X276365130Y-94805500D01*
X277018273Y-95458642D02*
X277526273Y-95458642D01*
X277743987Y-96256928D02*
X277018273Y-96256928D01*
X277018273Y-94732928D01*
X277743987Y-94732928D01*
%TO.C,SW68*%
X216128728Y-96256928D02*
X216128728Y-94732928D01*
X216491585Y-94732928D01*
X216709299Y-94805500D01*
X216854442Y-94950642D01*
X216927014Y-95095785D01*
X216999585Y-95386071D01*
X216999585Y-95603785D01*
X216927014Y-95894071D01*
X216854442Y-96039214D01*
X216709299Y-96184357D01*
X216491585Y-96256928D01*
X216128728Y-96256928D01*
X217652728Y-95458642D02*
X218160728Y-95458642D01*
X218378442Y-96256928D02*
X217652728Y-96256928D01*
X217652728Y-94732928D01*
X218378442Y-94732928D01*
X219757299Y-96256928D02*
X219031585Y-96256928D01*
X219031585Y-94732928D01*
%TO.C,SW67*%
X190836400Y-96256928D02*
X190836400Y-94732928D01*
X191562114Y-96256928D02*
X191562114Y-94732928D01*
X192432971Y-96256928D01*
X192432971Y-94732928D01*
X193086114Y-96184357D02*
X193303828Y-96256928D01*
X193666685Y-96256928D01*
X193811828Y-96184357D01*
X193884400Y-96111785D01*
X193956971Y-95966642D01*
X193956971Y-95821500D01*
X193884400Y-95676357D01*
X193811828Y-95603785D01*
X193666685Y-95531214D01*
X193376400Y-95458642D01*
X193231257Y-95386071D01*
X193158685Y-95313500D01*
X193086114Y-95168357D01*
X193086114Y-95023214D01*
X193158685Y-94878071D01*
X193231257Y-94805500D01*
X193376400Y-94732928D01*
X193739257Y-94732928D01*
X193956971Y-94805500D01*
%TO.C,SW66*%
X164211000Y-96256928D02*
X164211000Y-94732928D01*
X164211000Y-95458642D02*
X165081857Y-95458642D01*
X165081857Y-96256928D02*
X165081857Y-94732928D01*
X166097857Y-94732928D02*
X166388142Y-94732928D01*
X166533285Y-94805500D01*
X166678428Y-94950642D01*
X166751000Y-95240928D01*
X166751000Y-95748928D01*
X166678428Y-96039214D01*
X166533285Y-96184357D01*
X166388142Y-96256928D01*
X166097857Y-96256928D01*
X165952714Y-96184357D01*
X165807571Y-96039214D01*
X165735000Y-95748928D01*
X165735000Y-95240928D01*
X165807571Y-94950642D01*
X165952714Y-94805500D01*
X166097857Y-94732928D01*
X167404142Y-96256928D02*
X167404142Y-94732928D01*
X167912142Y-95821500D01*
X168420142Y-94732928D01*
X168420142Y-96256928D01*
X169145857Y-95458642D02*
X169653857Y-95458642D01*
X169871571Y-96256928D02*
X169145857Y-96256928D01*
X169145857Y-94732928D01*
X169871571Y-94732928D01*
%TO.C,SW61*%
X246054967Y-96184357D02*
X246272681Y-96256928D01*
X246635538Y-96256928D01*
X246780681Y-96184357D01*
X246853253Y-96111785D01*
X246925824Y-95966642D01*
X246925824Y-95821500D01*
X246853253Y-95676357D01*
X246780681Y-95603785D01*
X246635538Y-95531214D01*
X246345253Y-95458642D01*
X246200110Y-95386071D01*
X246127538Y-95313500D01*
X246054967Y-95168357D01*
X246054967Y-95023214D01*
X246127538Y-94878071D01*
X246200110Y-94805500D01*
X246345253Y-94732928D01*
X246708110Y-94732928D01*
X246925824Y-94805500D01*
X247361253Y-94732928D02*
X248232110Y-94732928D01*
X247796681Y-96256928D02*
X247796681Y-94732928D01*
X249030395Y-94732928D02*
X249320681Y-94732928D01*
X249465824Y-94805500D01*
X249610967Y-94950642D01*
X249683538Y-95240928D01*
X249683538Y-95748928D01*
X249610967Y-96039214D01*
X249465824Y-96184357D01*
X249320681Y-96256928D01*
X249030395Y-96256928D01*
X248885253Y-96184357D01*
X248740110Y-96039214D01*
X248667538Y-95748928D01*
X248667538Y-95240928D01*
X248740110Y-94950642D01*
X248885253Y-94805500D01*
X249030395Y-94732928D01*
X250336681Y-96256928D02*
X250336681Y-94732928D01*
X250917253Y-94732928D01*
X251062395Y-94805500D01*
X251134967Y-94878071D01*
X251207538Y-95023214D01*
X251207538Y-95240928D01*
X251134967Y-95386071D01*
X251062395Y-95458642D01*
X250917253Y-95531214D01*
X250336681Y-95531214D01*
%TO.C,SW58*%
X135594337Y-95458642D02*
X135086337Y-95458642D01*
X135086337Y-96256928D02*
X135086337Y-94732928D01*
X135812051Y-94732928D01*
X137118337Y-94732928D02*
X136392622Y-94732928D01*
X136320051Y-95458642D01*
X136392622Y-95386071D01*
X136537765Y-95313500D01*
X136900622Y-95313500D01*
X137045765Y-95386071D01*
X137118337Y-95458642D01*
X137190908Y-95603785D01*
X137190908Y-95966642D01*
X137118337Y-96111785D01*
X137045765Y-96184357D01*
X136900622Y-96256928D01*
X136537765Y-96256928D01*
X136392622Y-96184357D01*
X136320051Y-96111785D01*
%TO.C,SW57*%
X110109931Y-95458642D02*
X109601931Y-95458642D01*
X109601931Y-96256928D02*
X109601931Y-94732928D01*
X110327645Y-94732928D01*
X111561359Y-95240928D02*
X111561359Y-96256928D01*
X111198502Y-94660357D02*
X110835645Y-95748928D01*
X111779073Y-95748928D01*
D13*
%TO.C,J3*%
X322311616Y-75610793D02*
X322311616Y-76517936D01*
X322251140Y-76699365D01*
X322130188Y-76820317D01*
X321948759Y-76880793D01*
X321827807Y-76880793D01*
X322795426Y-75610793D02*
X323581616Y-75610793D01*
X323158283Y-76094603D01*
X323339711Y-76094603D01*
X323460664Y-76155079D01*
X323521140Y-76215555D01*
X323581616Y-76336508D01*
X323581616Y-76638889D01*
X323521140Y-76759841D01*
X323460664Y-76820317D01*
X323339711Y-76880793D01*
X322976854Y-76880793D01*
X322855902Y-76820317D01*
X322795426Y-76759841D01*
D11*
%TO.C,SW39*%
X57942627Y-139665346D02*
X57847389Y-139617727D01*
X57752151Y-139522488D01*
X57609294Y-139379631D01*
X57514056Y-139332012D01*
X57418818Y-139332012D01*
X57466437Y-139570107D02*
X57371199Y-139522488D01*
X57275961Y-139427250D01*
X57228342Y-139236774D01*
X57228342Y-138903441D01*
X57275961Y-138712965D01*
X57371199Y-138617727D01*
X57466437Y-138570107D01*
X57656913Y-138570107D01*
X57752151Y-138617727D01*
X57847389Y-138712965D01*
X57895008Y-138903441D01*
X57895008Y-139236774D01*
X57847389Y-139427250D01*
X57752151Y-139522488D01*
X57656913Y-139570107D01*
X57466437Y-139570107D01*
%TO.C,SW91*%
X287829299Y-177493667D02*
X287972156Y-177541286D01*
X288210251Y-177541286D01*
X288305489Y-177493667D01*
X288353108Y-177446048D01*
X288400727Y-177350810D01*
X288400727Y-177255572D01*
X288353108Y-177160334D01*
X288305489Y-177112715D01*
X288210251Y-177065096D01*
X288019775Y-177017477D01*
X287924537Y-176969858D01*
X287876918Y-176922239D01*
X287829299Y-176827001D01*
X287829299Y-176731763D01*
X287876918Y-176636525D01*
X287924537Y-176588906D01*
X288019775Y-176541286D01*
X288257870Y-176541286D01*
X288400727Y-176588906D01*
X288829299Y-177541286D02*
X288829299Y-176541286D01*
X288829299Y-177017477D02*
X289400727Y-177017477D01*
X289400727Y-177541286D02*
X289400727Y-176541286D01*
X289876918Y-177541286D02*
X289876918Y-176541286D01*
X290686442Y-177017477D02*
X290353108Y-177017477D01*
X290353108Y-177541286D02*
X290353108Y-176541286D01*
X290829299Y-176541286D01*
X291067394Y-176541286D02*
X291638823Y-176541286D01*
X291353108Y-177541286D02*
X291353108Y-176541286D01*
X292543584Y-177541286D02*
X292210251Y-177065096D01*
X291972156Y-177541286D02*
X291972156Y-176541286D01*
X292353108Y-176541286D01*
X292448346Y-176588906D01*
X292495965Y-176636525D01*
X292543584Y-176731763D01*
X292543584Y-176874620D01*
X292495965Y-176969858D01*
X292448346Y-177017477D01*
X292353108Y-177065096D01*
X291972156Y-177065096D01*
%TO.C,SW5*%
X105232831Y-119784555D02*
X105232831Y-120451221D01*
X104994736Y-119403602D02*
X104756641Y-120117888D01*
X105375688Y-120117888D01*
%TO.C,SW6*%
X124329164Y-119405262D02*
X123852974Y-119405262D01*
X123805355Y-119881453D01*
X123852974Y-119833834D01*
X123948212Y-119786215D01*
X124186307Y-119786215D01*
X124281545Y-119833834D01*
X124329164Y-119881453D01*
X124376783Y-119976691D01*
X124376783Y-120214786D01*
X124329164Y-120310024D01*
X124281545Y-120357643D01*
X124186307Y-120405262D01*
X123948212Y-120405262D01*
X123852974Y-120357643D01*
X123805355Y-120310024D01*
%TO.C,SW7*%
X143332408Y-119357154D02*
X143141932Y-119357154D01*
X143046694Y-119404774D01*
X142999075Y-119452393D01*
X142903837Y-119595250D01*
X142856218Y-119785726D01*
X142856218Y-120166678D01*
X142903837Y-120261916D01*
X142951456Y-120309535D01*
X143046694Y-120357154D01*
X143237170Y-120357154D01*
X143332408Y-120309535D01*
X143380027Y-120261916D01*
X143427646Y-120166678D01*
X143427646Y-119928583D01*
X143380027Y-119833345D01*
X143332408Y-119785726D01*
X143237170Y-119738107D01*
X143046694Y-119738107D01*
X142951456Y-119785726D01*
X142903837Y-119833345D01*
X142856218Y-119928583D01*
%TO.C,SW8*%
X161907571Y-119212829D02*
X162574237Y-119212829D01*
X162145666Y-120212829D01*
%TO.C,SW9*%
X180894379Y-119748863D02*
X180799141Y-119701244D01*
X180751522Y-119653625D01*
X180703903Y-119558387D01*
X180703903Y-119510768D01*
X180751522Y-119415530D01*
X180799141Y-119367911D01*
X180894379Y-119320291D01*
X181084855Y-119320291D01*
X181180093Y-119367911D01*
X181227712Y-119415530D01*
X181275331Y-119510768D01*
X181275331Y-119558387D01*
X181227712Y-119653625D01*
X181180093Y-119701244D01*
X181084855Y-119748863D01*
X180894379Y-119748863D01*
X180799141Y-119796482D01*
X180751522Y-119844101D01*
X180703903Y-119939339D01*
X180703903Y-120129815D01*
X180751522Y-120225053D01*
X180799141Y-120272672D01*
X180894379Y-120320291D01*
X181084855Y-120320291D01*
X181180093Y-120272672D01*
X181227712Y-120225053D01*
X181275331Y-120129815D01*
X181275331Y-119939339D01*
X181227712Y-119844101D01*
X181180093Y-119796482D01*
X181084855Y-119748863D01*
%TO.C,SW10*%
X199736920Y-120134627D02*
X199927396Y-120134627D01*
X200022634Y-120087008D01*
X200070253Y-120039389D01*
X200165491Y-119896532D01*
X200213110Y-119706056D01*
X200213110Y-119325104D01*
X200165491Y-119229866D01*
X200117872Y-119182247D01*
X200022634Y-119134627D01*
X199832158Y-119134627D01*
X199736920Y-119182247D01*
X199689301Y-119229866D01*
X199641682Y-119325104D01*
X199641682Y-119563199D01*
X199689301Y-119658437D01*
X199736920Y-119706056D01*
X199832158Y-119753675D01*
X200022634Y-119753675D01*
X200117872Y-119706056D01*
X200165491Y-119658437D01*
X200213110Y-119563199D01*
%TO.C,SW11*%
X237774425Y-119957284D02*
X238536330Y-119957284D01*
X240060139Y-120719189D02*
X240012520Y-120671570D01*
X239917282Y-120528713D01*
X239869663Y-120433475D01*
X239822044Y-120290617D01*
X239774425Y-120052522D01*
X239774425Y-119862046D01*
X239822044Y-119623951D01*
X239869663Y-119481094D01*
X239917282Y-119385856D01*
X240012520Y-119242998D01*
X240060139Y-119195379D01*
X240441091Y-120338236D02*
X240441091Y-119671570D01*
X240441091Y-119766808D02*
X240488710Y-119719189D01*
X240583949Y-119671570D01*
X240726806Y-119671570D01*
X240822044Y-119719189D01*
X240869663Y-119814427D01*
X240869663Y-120338236D01*
X240869663Y-119814427D02*
X240917282Y-119719189D01*
X241012520Y-119671570D01*
X241155377Y-119671570D01*
X241250615Y-119719189D01*
X241298234Y-119814427D01*
X241298234Y-120338236D01*
X241774425Y-120338236D02*
X241774425Y-119671570D01*
X241774425Y-119338236D02*
X241726806Y-119385856D01*
X241774425Y-119433475D01*
X241822044Y-119385856D01*
X241774425Y-119338236D01*
X241774425Y-119433475D01*
X242250615Y-119671570D02*
X242250615Y-120338236D01*
X242250615Y-119766808D02*
X242298234Y-119719189D01*
X242393472Y-119671570D01*
X242536330Y-119671570D01*
X242631568Y-119719189D01*
X242679187Y-119814427D01*
X242679187Y-120338236D01*
X243583949Y-119671570D02*
X243583949Y-120338236D01*
X243155377Y-119671570D02*
X243155377Y-120195379D01*
X243202996Y-120290617D01*
X243298234Y-120338236D01*
X243441091Y-120338236D01*
X243536330Y-120290617D01*
X243583949Y-120242998D01*
X244012520Y-120290617D02*
X244107758Y-120338236D01*
X244298234Y-120338236D01*
X244393472Y-120290617D01*
X244441091Y-120195379D01*
X244441091Y-120147760D01*
X244393472Y-120052522D01*
X244298234Y-120004903D01*
X244155377Y-120004903D01*
X244060139Y-119957284D01*
X244012520Y-119862046D01*
X244012520Y-119814427D01*
X244060139Y-119719189D01*
X244155377Y-119671570D01*
X244298234Y-119671570D01*
X244393472Y-119719189D01*
X244774425Y-120719189D02*
X244822044Y-120671570D01*
X244917282Y-120528713D01*
X244964901Y-120433475D01*
X245012520Y-120290617D01*
X245060139Y-120052522D01*
X245060139Y-119862046D01*
X245012520Y-119623951D01*
X244964901Y-119481094D01*
X244917282Y-119385856D01*
X244822044Y-119242998D01*
X244774425Y-119195379D01*
%TO.C,SW12*%
X256471457Y-119376557D02*
X256661933Y-119233699D01*
X256852409Y-119376557D01*
%TO.C,SW13*%
X275469208Y-119078955D02*
X276326351Y-120364670D01*
%TO.C,SW14*%
X247962970Y-138989305D02*
X247915351Y-138941686D01*
X247820113Y-138894067D01*
X247724875Y-138894067D01*
X247629637Y-138941686D01*
X247582018Y-138989305D01*
X247534399Y-139084543D01*
X247534399Y-139179781D01*
X247582018Y-139275019D01*
X247629637Y-139322638D01*
X247724875Y-139370257D01*
X247820113Y-139370257D01*
X247915351Y-139322638D01*
X247962970Y-139275019D01*
X247962970Y-138894067D02*
X247962970Y-139275019D01*
X248010589Y-139322638D01*
X248058208Y-139322638D01*
X248153447Y-139275019D01*
X248201066Y-139179781D01*
X248201066Y-138941686D01*
X248105828Y-138798829D01*
X247962970Y-138703591D01*
X247772494Y-138655972D01*
X247582018Y-138703591D01*
X247439161Y-138798829D01*
X247343923Y-138941686D01*
X247296304Y-139132162D01*
X247343923Y-139322638D01*
X247439161Y-139465495D01*
X247582018Y-139560734D01*
X247772494Y-139608353D01*
X247962970Y-139560734D01*
X248105828Y-139465495D01*
%TO.C,SW15*%
X266759495Y-139654499D02*
X266521400Y-139654499D01*
X266521400Y-138225927D01*
X266759495Y-138225927D01*
%TO.C,SW16*%
X233105305Y-158334909D02*
X233105305Y-158382528D01*
X233057686Y-158477767D01*
X233010067Y-158525386D01*
X233057686Y-157763481D02*
X233105305Y-157811100D01*
X233057686Y-157858719D01*
X233010067Y-157811100D01*
X233057686Y-157763481D01*
X233057686Y-157858719D01*
%TO.C,SW17*%
X252383246Y-158355785D02*
X252430865Y-158403404D01*
X252383246Y-158451023D01*
X252335627Y-158403404D01*
X252383246Y-158355785D01*
X252383246Y-158451023D01*
X252383246Y-157831976D02*
X252430865Y-157879595D01*
X252383246Y-157927214D01*
X252335627Y-157879595D01*
X252383246Y-157831976D01*
X252383246Y-157927214D01*
%TO.C,SW18*%
X270906596Y-158490804D02*
X271144691Y-158490804D01*
X271144691Y-157062232D01*
X270906596Y-157062232D01*
%TO.C,SW19*%
X204569822Y-177357888D02*
X204569822Y-177405507D01*
X204522203Y-177500746D01*
X204474584Y-177548365D01*
%TO.C,SW20*%
X223812526Y-177310269D02*
X223860145Y-177357888D01*
X223812526Y-177405507D01*
X223764907Y-177357888D01*
X223812526Y-177310269D01*
X223812526Y-177405507D01*
%TO.C,SW21*%
X243382788Y-176452039D02*
X242525646Y-177737754D01*
%TO.C,SW22*%
X261383800Y-177594897D02*
X262145704Y-177594897D01*
X263431419Y-177880611D02*
X263383800Y-177832992D01*
X263288561Y-177690135D01*
X263240942Y-177594897D01*
X263193323Y-177452039D01*
X263145704Y-177213944D01*
X263145704Y-177023468D01*
X263193323Y-176785373D01*
X263240942Y-176642516D01*
X263288561Y-176547278D01*
X263383800Y-176404420D01*
X263431419Y-176356801D01*
X264240942Y-176832992D02*
X264240942Y-177499658D01*
X263812371Y-176832992D02*
X263812371Y-177356801D01*
X263859990Y-177452039D01*
X263955228Y-177499658D01*
X264098085Y-177499658D01*
X264193323Y-177452039D01*
X264240942Y-177404420D01*
X264717133Y-176832992D02*
X264717133Y-177499658D01*
X264717133Y-176928230D02*
X264764752Y-176880611D01*
X264859990Y-176832992D01*
X265002847Y-176832992D01*
X265098085Y-176880611D01*
X265145704Y-176975849D01*
X265145704Y-177499658D01*
X266050466Y-177499658D02*
X266050466Y-176499658D01*
X266050466Y-177452039D02*
X265955228Y-177499658D01*
X265764752Y-177499658D01*
X265669514Y-177452039D01*
X265621895Y-177404420D01*
X265574276Y-177309182D01*
X265574276Y-177023468D01*
X265621895Y-176928230D01*
X265669514Y-176880611D01*
X265764752Y-176832992D01*
X265955228Y-176832992D01*
X266050466Y-176880611D01*
X266907609Y-177452039D02*
X266812371Y-177499658D01*
X266621895Y-177499658D01*
X266526657Y-177452039D01*
X266479038Y-177356801D01*
X266479038Y-176975849D01*
X266526657Y-176880611D01*
X266621895Y-176832992D01*
X266812371Y-176832992D01*
X266907609Y-176880611D01*
X266955228Y-176975849D01*
X266955228Y-177071087D01*
X266479038Y-177166325D01*
X267383800Y-177499658D02*
X267383800Y-176832992D01*
X267383800Y-177023468D02*
X267431419Y-176928230D01*
X267479038Y-176880611D01*
X267574276Y-176832992D01*
X267669514Y-176832992D01*
X267955228Y-177452039D02*
X268050466Y-177499658D01*
X268240942Y-177499658D01*
X268336180Y-177452039D01*
X268383800Y-177356801D01*
X268383800Y-177309182D01*
X268336180Y-177213944D01*
X268240942Y-177166325D01*
X268098085Y-177166325D01*
X268002847Y-177118706D01*
X267955228Y-177023468D01*
X267955228Y-176975849D01*
X268002847Y-176880611D01*
X268098085Y-176832992D01*
X268240942Y-176832992D01*
X268336180Y-176880611D01*
X269240942Y-177452039D02*
X269145704Y-177499658D01*
X268955228Y-177499658D01*
X268859990Y-177452039D01*
X268812371Y-177404420D01*
X268764752Y-177309182D01*
X268764752Y-177023468D01*
X268812371Y-176928230D01*
X268859990Y-176880611D01*
X268955228Y-176832992D01*
X269145704Y-176832992D01*
X269240942Y-176880611D01*
X269812371Y-177499658D02*
X269717133Y-177452039D01*
X269669514Y-177404420D01*
X269621895Y-177309182D01*
X269621895Y-177023468D01*
X269669514Y-176928230D01*
X269717133Y-176880611D01*
X269812371Y-176832992D01*
X269955228Y-176832992D01*
X270050466Y-176880611D01*
X270098085Y-176928230D01*
X270145704Y-177023468D01*
X270145704Y-177309182D01*
X270098085Y-177404420D01*
X270050466Y-177452039D01*
X269955228Y-177499658D01*
X269812371Y-177499658D01*
X270574276Y-177499658D02*
X270574276Y-176832992D01*
X270574276Y-177023468D02*
X270621895Y-176928230D01*
X270669514Y-176880611D01*
X270764752Y-176832992D01*
X270859990Y-176832992D01*
X271574276Y-177452039D02*
X271479038Y-177499658D01*
X271288561Y-177499658D01*
X271193323Y-177452039D01*
X271145704Y-177356801D01*
X271145704Y-176975849D01*
X271193323Y-176880611D01*
X271288561Y-176832992D01*
X271479038Y-176832992D01*
X271574276Y-176880611D01*
X271621895Y-176975849D01*
X271621895Y-177071087D01*
X271145704Y-177166325D01*
X271955228Y-177880611D02*
X272002847Y-177832992D01*
X272098085Y-177690135D01*
X272145704Y-177594897D01*
X272193323Y-177452039D01*
X272240942Y-177213944D01*
X272240942Y-177023468D01*
X272193323Y-176785373D01*
X272145704Y-176642516D01*
X272098085Y-176547278D01*
X272002847Y-176404420D01*
X271955228Y-176356801D01*
%TO.C,SW23*%
X61914314Y-158183331D02*
X62390504Y-158183331D01*
X61819076Y-158469045D02*
X62152409Y-157469045D01*
X62485742Y-158469045D01*
%TO.C,SW24*%
X147930507Y-177024645D02*
X148073364Y-177072264D01*
X148120983Y-177119883D01*
X148168602Y-177215121D01*
X148168602Y-177357978D01*
X148120983Y-177453216D01*
X148073364Y-177500835D01*
X147978126Y-177548454D01*
X147597174Y-177548454D01*
X147597174Y-176548454D01*
X147930507Y-176548454D01*
X148025745Y-176596074D01*
X148073364Y-176643693D01*
X148120983Y-176738931D01*
X148120983Y-176834169D01*
X148073364Y-176929407D01*
X148025745Y-176977026D01*
X147930507Y-177024645D01*
X147597174Y-177024645D01*
%TO.C,SW25*%
X110201603Y-177517200D02*
X110153984Y-177564819D01*
X110011127Y-177612438D01*
X109915889Y-177612438D01*
X109773032Y-177564819D01*
X109677794Y-177469581D01*
X109630175Y-177374343D01*
X109582556Y-177183867D01*
X109582556Y-177041010D01*
X109630175Y-176850534D01*
X109677794Y-176755296D01*
X109773032Y-176660058D01*
X109915889Y-176612438D01*
X110011127Y-176612438D01*
X110153984Y-176660058D01*
X110201603Y-176707677D01*
%TO.C,SW26*%
X100061585Y-158342663D02*
X100061585Y-157342663D01*
X100299680Y-157342663D01*
X100442537Y-157390283D01*
X100537775Y-157485521D01*
X100585394Y-157580759D01*
X100633013Y-157771235D01*
X100633013Y-157914092D01*
X100585394Y-158104568D01*
X100537775Y-158199806D01*
X100442537Y-158295044D01*
X100299680Y-158342663D01*
X100061585Y-158342663D01*
%TO.C,SW27*%
X95182611Y-138833951D02*
X95515944Y-138833951D01*
X95658801Y-139357760D02*
X95182611Y-139357760D01*
X95182611Y-138357760D01*
X95658801Y-138357760D01*
%TO.C,SW28*%
X119391112Y-157980432D02*
X119057779Y-157980432D01*
X119057779Y-158504241D02*
X119057779Y-157504241D01*
X119533969Y-157504241D01*
%TO.C,SW29*%
X138682659Y-157757482D02*
X138587421Y-157709862D01*
X138444564Y-157709862D01*
X138301707Y-157757482D01*
X138206469Y-157852720D01*
X138158850Y-157947958D01*
X138111231Y-158138434D01*
X138111231Y-158281291D01*
X138158850Y-158471767D01*
X138206469Y-158567005D01*
X138301707Y-158662243D01*
X138444564Y-158709862D01*
X138539802Y-158709862D01*
X138682659Y-158662243D01*
X138730278Y-158614624D01*
X138730278Y-158281291D01*
X138539802Y-158281291D01*
%TO.C,SW30*%
X157130408Y-158524472D02*
X157130408Y-157524472D01*
X157130408Y-158000663D02*
X157701836Y-158000663D01*
X157701836Y-158524472D02*
X157701836Y-157524472D01*
%TO.C,SW31*%
X190417150Y-139305728D02*
X190417150Y-138305728D01*
%TO.C,SW32*%
X176288987Y-157450381D02*
X176288987Y-158164667D01*
X176241368Y-158307524D01*
X176146130Y-158402762D01*
X176003273Y-158450381D01*
X175908035Y-158450381D01*
%TO.C,SW33*%
X195097815Y-158417552D02*
X195097815Y-157417552D01*
X195669243Y-158417552D02*
X195240672Y-157846124D01*
X195669243Y-157417552D02*
X195097815Y-157988981D01*
%TO.C,SW34*%
X214599720Y-158431453D02*
X214123530Y-158431453D01*
X214123530Y-157431453D01*
%TO.C,SW35*%
X185923910Y-177492011D02*
X185923910Y-176492011D01*
X186257243Y-177206297D01*
X186590576Y-176492011D01*
X186590576Y-177492011D01*
%TO.C,SW36*%
X166720091Y-177665018D02*
X166720091Y-176665018D01*
X167291519Y-177665018D01*
X167291519Y-176665018D01*
%TO.C,SW37*%
X209421459Y-138514420D02*
X209611935Y-138514420D01*
X209707173Y-138562040D01*
X209802411Y-138657278D01*
X209850030Y-138847754D01*
X209850030Y-139181087D01*
X209802411Y-139371563D01*
X209707173Y-139466801D01*
X209611935Y-139514420D01*
X209421459Y-139514420D01*
X209326221Y-139466801D01*
X209230983Y-139371563D01*
X209183364Y-139181087D01*
X209183364Y-138847754D01*
X209230983Y-138657278D01*
X209326221Y-138562040D01*
X209421459Y-138514420D01*
%TO.C,SW38*%
X228067288Y-139416570D02*
X228067288Y-138416570D01*
X228448240Y-138416570D01*
X228543478Y-138464190D01*
X228591097Y-138511809D01*
X228638716Y-138607047D01*
X228638716Y-138749904D01*
X228591097Y-138845142D01*
X228543478Y-138892761D01*
X228448240Y-138940380D01*
X228067288Y-138940380D01*
%TO.C,SW40*%
X114708686Y-139405868D02*
X114375353Y-138929678D01*
X114137258Y-139405868D02*
X114137258Y-138405868D01*
X114518210Y-138405868D01*
X114613448Y-138453488D01*
X114661067Y-138501107D01*
X114708686Y-138596345D01*
X114708686Y-138739202D01*
X114661067Y-138834440D01*
X114613448Y-138882059D01*
X114518210Y-138929678D01*
X114137258Y-138929678D01*
%TO.C,SW41*%
X81072599Y-158600335D02*
X81215456Y-158647954D01*
X81453551Y-158647954D01*
X81548789Y-158600335D01*
X81596408Y-158552716D01*
X81644027Y-158457478D01*
X81644027Y-158362240D01*
X81596408Y-158267002D01*
X81548789Y-158219383D01*
X81453551Y-158171764D01*
X81263075Y-158124145D01*
X81167837Y-158076526D01*
X81120218Y-158028907D01*
X81072599Y-157933669D01*
X81072599Y-157838431D01*
X81120218Y-157743193D01*
X81167837Y-157695574D01*
X81263075Y-157647954D01*
X81501170Y-157647954D01*
X81644027Y-157695574D01*
%TO.C,SW42*%
X133285806Y-138357760D02*
X133857234Y-138357760D01*
X133571520Y-139357760D02*
X133571520Y-138357760D01*
%TO.C,SW43*%
X171312727Y-138454041D02*
X171312727Y-139263565D01*
X171360346Y-139358803D01*
X171407965Y-139406422D01*
X171503203Y-139454041D01*
X171693679Y-139454041D01*
X171788917Y-139406422D01*
X171836536Y-139358803D01*
X171884155Y-139263565D01*
X171884155Y-138454041D01*
%TO.C,SW44*%
X128570251Y-176454728D02*
X128903584Y-177454728D01*
X129236917Y-176454728D01*
%TO.C,SW45*%
X76129115Y-138362339D02*
X76367210Y-139362339D01*
X76557686Y-138648054D01*
X76748162Y-139362339D01*
X76986258Y-138362339D01*
%TO.C,SW46*%
X90609715Y-176454728D02*
X91276381Y-177454728D01*
X91276381Y-176454728D02*
X90609715Y-177454728D01*
%TO.C,SW47*%
X152540917Y-139030377D02*
X152540917Y-139506567D01*
X152207584Y-138506567D02*
X152540917Y-139030377D01*
X152874250Y-138506567D01*
%TO.C,SW48*%
X71721518Y-176605007D02*
X72388184Y-176605007D01*
X71721518Y-177605007D01*
X72388184Y-177605007D01*
%TO.C,SW49*%
X40756442Y-177728609D02*
X40899299Y-177776228D01*
X41137394Y-177776228D01*
X41232632Y-177728609D01*
X41280251Y-177680990D01*
X41327870Y-177585752D01*
X41327870Y-177490514D01*
X41280251Y-177395276D01*
X41232632Y-177347657D01*
X41137394Y-177300038D01*
X40946918Y-177252419D01*
X40851680Y-177204800D01*
X40804061Y-177157181D01*
X40756442Y-177061943D01*
X40756442Y-176966705D01*
X40804061Y-176871467D01*
X40851680Y-176823848D01*
X40946918Y-176776228D01*
X41185013Y-176776228D01*
X41327870Y-176823848D01*
X41756442Y-177776228D02*
X41756442Y-176776228D01*
X41756442Y-177252419D02*
X42327870Y-177252419D01*
X42327870Y-177776228D02*
X42327870Y-176776228D01*
X42804061Y-177776228D02*
X42804061Y-176776228D01*
X43613585Y-177252419D02*
X43280251Y-177252419D01*
X43280251Y-177776228D02*
X43280251Y-176776228D01*
X43756442Y-176776228D01*
X43994537Y-176776228D02*
X44565966Y-176776228D01*
X44280251Y-177776228D02*
X44280251Y-176776228D01*
X45375489Y-177776228D02*
X44899299Y-177776228D01*
X44899299Y-176776228D01*
%TO.C,SW50*%
X36673739Y-158373807D02*
X36626120Y-158421426D01*
X36483263Y-158469045D01*
X36388025Y-158469045D01*
X36245168Y-158421426D01*
X36149930Y-158326188D01*
X36102311Y-158230950D01*
X36054692Y-158040474D01*
X36054692Y-157897617D01*
X36102311Y-157707141D01*
X36149930Y-157611903D01*
X36245168Y-157516665D01*
X36388025Y-157469045D01*
X36483263Y-157469045D01*
X36626120Y-157516665D01*
X36673739Y-157564284D01*
X36959454Y-157469045D02*
X37530882Y-157469045D01*
X37245168Y-158469045D02*
X37245168Y-157469045D01*
X38435644Y-158469045D02*
X38102311Y-157992855D01*
X37864216Y-158469045D02*
X37864216Y-157469045D01*
X38245168Y-157469045D01*
X38340406Y-157516665D01*
X38388025Y-157564284D01*
X38435644Y-157659522D01*
X38435644Y-157802379D01*
X38388025Y-157897617D01*
X38340406Y-157945236D01*
X38245168Y-157992855D01*
X37864216Y-157992855D01*
X39340406Y-158469045D02*
X38864216Y-158469045D01*
X38864216Y-157469045D01*
%TO.C,SW51*%
X93528271Y-195572117D02*
X93433033Y-195524497D01*
X93290176Y-195524497D01*
X93147319Y-195572117D01*
X93052081Y-195667355D01*
X93004462Y-195762593D01*
X92956843Y-195953069D01*
X92956843Y-196095926D01*
X93004462Y-196286402D01*
X93052081Y-196381640D01*
X93147319Y-196476878D01*
X93290176Y-196524497D01*
X93385414Y-196524497D01*
X93528271Y-196476878D01*
X93575890Y-196429259D01*
X93575890Y-196095926D01*
X93385414Y-196095926D01*
X94575890Y-196524497D02*
X94242557Y-196048307D01*
X94004462Y-196524497D02*
X94004462Y-195524497D01*
X94385414Y-195524497D01*
X94480652Y-195572117D01*
X94528271Y-195619736D01*
X94575890Y-195714974D01*
X94575890Y-195857831D01*
X94528271Y-195953069D01*
X94480652Y-196000688D01*
X94385414Y-196048307D01*
X94004462Y-196048307D01*
X94956843Y-196238783D02*
X95433033Y-196238783D01*
X94861605Y-196524497D02*
X95194938Y-195524497D01*
X95528271Y-196524497D01*
X95861605Y-196524497D02*
X95861605Y-195524497D01*
X96242557Y-195524497D01*
X96337795Y-195572117D01*
X96385414Y-195619736D01*
X96433033Y-195714974D01*
X96433033Y-195857831D01*
X96385414Y-195953069D01*
X96337795Y-196000688D01*
X96242557Y-196048307D01*
X95861605Y-196048307D01*
X96861605Y-196524497D02*
X96861605Y-195524497D01*
X96861605Y-196000688D02*
X97433033Y-196000688D01*
X97433033Y-196524497D02*
X97433033Y-195524497D01*
%TO.C,SW52*%
X67510699Y-196454451D02*
X67463080Y-196502070D01*
X67320223Y-196549689D01*
X67224985Y-196549689D01*
X67082128Y-196502070D01*
X66986890Y-196406832D01*
X66939271Y-196311594D01*
X66891652Y-196121118D01*
X66891652Y-195978261D01*
X66939271Y-195787785D01*
X66986890Y-195692547D01*
X67082128Y-195597309D01*
X67224985Y-195549689D01*
X67320223Y-195549689D01*
X67463080Y-195597309D01*
X67510699Y-195644928D01*
X67891652Y-196263975D02*
X68367842Y-196263975D01*
X67796414Y-196549689D02*
X68129747Y-195549689D01*
X68463080Y-196549689D01*
X68796414Y-196549689D02*
X68796414Y-195549689D01*
X69177366Y-195549689D01*
X69272604Y-195597309D01*
X69320223Y-195644928D01*
X69367842Y-195740166D01*
X69367842Y-195883023D01*
X69320223Y-195978261D01*
X69272604Y-196025880D01*
X69177366Y-196073499D01*
X68796414Y-196073499D01*
X69748795Y-196502070D02*
X69891652Y-196549689D01*
X70129747Y-196549689D01*
X70224985Y-196502070D01*
X70272604Y-196454451D01*
X70320223Y-196359213D01*
X70320223Y-196263975D01*
X70272604Y-196168737D01*
X70224985Y-196121118D01*
X70129747Y-196073499D01*
X69939271Y-196025880D01*
X69844033Y-195978261D01*
X69796414Y-195930642D01*
X69748795Y-195835404D01*
X69748795Y-195740166D01*
X69796414Y-195644928D01*
X69844033Y-195597309D01*
X69939271Y-195549689D01*
X70177366Y-195549689D01*
X70320223Y-195597309D01*
%TO.C,SW53*%
X233229194Y-196566886D02*
X233229194Y-195566886D01*
X233800622Y-196566886D02*
X233372051Y-195995458D01*
X233800622Y-195566886D02*
X233229194Y-196138315D01*
X234181575Y-196281172D02*
X234657765Y-196281172D01*
X234086337Y-196566886D02*
X234419670Y-195566886D01*
X234753003Y-196566886D01*
X235086337Y-196566886D02*
X235086337Y-195566886D01*
X235657765Y-196566886D01*
X235657765Y-195566886D01*
X236086337Y-196281172D02*
X236562527Y-196281172D01*
X235991099Y-196566886D02*
X236324432Y-195566886D01*
X236657765Y-196566886D01*
%TO.C,SW60*%
X33406060Y-138611660D02*
X33977488Y-138611660D01*
X33691774Y-139611660D02*
X33691774Y-138611660D01*
X34263202Y-139325946D02*
X34739393Y-139325946D01*
X34167964Y-139611660D02*
X34501298Y-138611660D01*
X34834631Y-139611660D01*
X35501298Y-139087851D02*
X35644155Y-139135470D01*
X35691774Y-139183089D01*
X35739393Y-139278327D01*
X35739393Y-139421184D01*
X35691774Y-139516422D01*
X35644155Y-139564041D01*
X35548917Y-139611660D01*
X35167964Y-139611660D01*
X35167964Y-138611660D01*
X35501298Y-138611660D01*
X35596536Y-138659280D01*
X35644155Y-138706899D01*
X35691774Y-138802137D01*
X35691774Y-138897375D01*
X35644155Y-138992613D01*
X35596536Y-139040232D01*
X35501298Y-139087851D01*
X35167964Y-139087851D01*
%TO.C,SW62*%
X295267485Y-119650384D02*
X295410342Y-119698003D01*
X295457961Y-119745622D01*
X295505580Y-119840860D01*
X295505580Y-119983717D01*
X295457961Y-120078955D01*
X295410342Y-120126574D01*
X295315104Y-120174193D01*
X294934152Y-120174193D01*
X294934152Y-119174193D01*
X295267485Y-119174193D01*
X295362723Y-119221813D01*
X295410342Y-119269432D01*
X295457961Y-119364670D01*
X295457961Y-119459908D01*
X295410342Y-119555146D01*
X295362723Y-119602765D01*
X295267485Y-119650384D01*
X294934152Y-119650384D01*
X295886533Y-120126574D02*
X296029390Y-120174193D01*
X296267485Y-120174193D01*
X296362723Y-120126574D01*
X296410342Y-120078955D01*
X296457961Y-119983717D01*
X296457961Y-119888479D01*
X296410342Y-119793241D01*
X296362723Y-119745622D01*
X296267485Y-119698003D01*
X296077009Y-119650384D01*
X295981771Y-119602765D01*
X295934152Y-119555146D01*
X295886533Y-119459908D01*
X295886533Y-119364670D01*
X295934152Y-119269432D01*
X295981771Y-119221813D01*
X296077009Y-119174193D01*
X296315104Y-119174193D01*
X296457961Y-119221813D01*
%TO.C,SW63*%
X256873316Y-196267228D02*
X257016173Y-196314847D01*
X257254268Y-196314847D01*
X257349506Y-196267228D01*
X257397125Y-196219609D01*
X257444744Y-196124371D01*
X257444744Y-196029133D01*
X257397125Y-195933895D01*
X257349506Y-195886276D01*
X257254268Y-195838657D01*
X257063792Y-195791038D01*
X256968554Y-195743419D01*
X256920935Y-195695800D01*
X256873316Y-195600562D01*
X256873316Y-195505324D01*
X256920935Y-195410086D01*
X256968554Y-195362467D01*
X257063792Y-195314847D01*
X257301887Y-195314847D01*
X257444744Y-195362467D01*
X257873316Y-195791038D02*
X258206649Y-195791038D01*
X258349506Y-196314847D02*
X257873316Y-196314847D01*
X257873316Y-195314847D01*
X258349506Y-195314847D01*
X259254268Y-196314847D02*
X258778078Y-196314847D01*
X258778078Y-195314847D01*
X259587601Y-195791038D02*
X259920935Y-195791038D01*
X260063792Y-196314847D02*
X259587601Y-196314847D01*
X259587601Y-195314847D01*
X260063792Y-195314847D01*
X261063792Y-196219609D02*
X261016173Y-196267228D01*
X260873316Y-196314847D01*
X260778078Y-196314847D01*
X260635220Y-196267228D01*
X260539982Y-196171990D01*
X260492363Y-196076752D01*
X260444744Y-195886276D01*
X260444744Y-195743419D01*
X260492363Y-195552943D01*
X260539982Y-195457705D01*
X260635220Y-195362467D01*
X260778078Y-195314847D01*
X260873316Y-195314847D01*
X261016173Y-195362467D01*
X261063792Y-195410086D01*
X261349506Y-195314847D02*
X261920935Y-195314847D01*
X261635220Y-196314847D02*
X261635220Y-195314847D01*
%TO.C,SW65*%
X166845480Y-196648211D02*
X166988337Y-196695830D01*
X167226432Y-196695830D01*
X167321670Y-196648211D01*
X167369289Y-196600592D01*
X167416908Y-196505354D01*
X167416908Y-196410116D01*
X167369289Y-196314878D01*
X167321670Y-196267259D01*
X167226432Y-196219640D01*
X167035956Y-196172021D01*
X166940718Y-196124402D01*
X166893099Y-196076783D01*
X166845480Y-195981545D01*
X166845480Y-195886307D01*
X166893099Y-195791069D01*
X166940718Y-195743450D01*
X167035956Y-195695830D01*
X167274051Y-195695830D01*
X167416908Y-195743450D01*
X167845480Y-196695830D02*
X167845480Y-195695830D01*
X168226432Y-195695830D01*
X168321670Y-195743450D01*
X168369289Y-195791069D01*
X168416908Y-195886307D01*
X168416908Y-196029164D01*
X168369289Y-196124402D01*
X168321670Y-196172021D01*
X168226432Y-196219640D01*
X167845480Y-196219640D01*
X168797861Y-196410116D02*
X169274051Y-196410116D01*
X168702623Y-196695830D02*
X169035956Y-195695830D01*
X169369289Y-196695830D01*
X170274051Y-196600592D02*
X170226432Y-196648211D01*
X170083575Y-196695830D01*
X169988337Y-196695830D01*
X169845480Y-196648211D01*
X169750242Y-196552973D01*
X169702623Y-196457735D01*
X169655004Y-196267259D01*
X169655004Y-196124402D01*
X169702623Y-195933926D01*
X169750242Y-195838688D01*
X169845480Y-195743450D01*
X169988337Y-195695830D01*
X170083575Y-195695830D01*
X170226432Y-195743450D01*
X170274051Y-195791069D01*
X170702623Y-196172021D02*
X171035956Y-196172021D01*
X171178813Y-196695830D02*
X170702623Y-196695830D01*
X170702623Y-195695830D01*
X171178813Y-195695830D01*
%TO.C,SW69*%
X329876526Y-193228717D02*
X329114621Y-193228717D01*
X329305097Y-193419193D02*
X329114621Y-193228717D01*
X329305097Y-193038241D01*
%TO.C,SW70*%
X357361990Y-183852243D02*
X357361990Y-183090339D01*
X357171514Y-183280815D02*
X357361990Y-183090339D01*
X357552466Y-183280815D01*
%TO.C,SW71*%
X357305809Y-202641403D02*
X357305809Y-203403307D01*
X357496285Y-203212831D02*
X357305809Y-203403307D01*
X357115333Y-203212831D01*
%TO.C,SW72*%
X384929863Y-193311125D02*
X385691768Y-193311125D01*
X385501291Y-193501601D02*
X385691768Y-193311125D01*
X385501291Y-193120649D01*
%TO.C,SW73*%
X385396778Y-120079544D02*
X385396778Y-119079544D01*
X385968206Y-120079544D01*
X385968206Y-119079544D01*
X386587254Y-119079544D02*
X386587254Y-119317640D01*
X386349159Y-119222402D02*
X386587254Y-119317640D01*
X386825349Y-119222402D01*
X386444397Y-119508116D02*
X386587254Y-119317640D01*
X386730111Y-119508116D01*
%TO.C,SW74*%
X385400278Y-158150280D02*
X385400278Y-157150280D01*
X385971706Y-158150280D01*
X385971706Y-157150280D01*
X386447897Y-157769328D02*
X387209802Y-157769328D01*
X386828849Y-158150280D02*
X386828849Y-157388376D01*
%TO.C,SW75*%
X385225963Y-101178380D02*
X385225963Y-100178380D01*
X385797391Y-101178380D01*
X385797391Y-100178380D01*
X386987868Y-100130761D02*
X386130725Y-101416476D01*
%TO.C,SW76*%
X328228349Y-158150280D02*
X328228349Y-157150280D01*
X328799777Y-158150280D01*
X328799777Y-157150280D01*
X329466444Y-157150280D02*
X329561682Y-157150280D01*
X329656920Y-157197900D01*
X329704539Y-157245519D01*
X329752158Y-157340757D01*
X329799777Y-157531233D01*
X329799777Y-157769328D01*
X329752158Y-157959804D01*
X329704539Y-158055042D01*
X329656920Y-158102661D01*
X329561682Y-158150280D01*
X329466444Y-158150280D01*
X329371206Y-158102661D01*
X329323587Y-158055042D01*
X329275968Y-157959804D01*
X329228349Y-157769328D01*
X329228349Y-157531233D01*
X329275968Y-157340757D01*
X329323587Y-157245519D01*
X329371206Y-157197900D01*
X329466444Y-157150280D01*
%TO.C,SW77*%
X328138315Y-139107976D02*
X328138315Y-138107976D01*
X328709743Y-139107976D01*
X328709743Y-138107976D01*
X329709743Y-139107976D02*
X329138315Y-139107976D01*
X329424029Y-139107976D02*
X329424029Y-138107976D01*
X329328791Y-138250834D01*
X329233553Y-138346072D01*
X329138315Y-138393691D01*
%TO.C,SW78*%
X347226737Y-139151893D02*
X347226737Y-138151893D01*
X347798165Y-139151893D01*
X347798165Y-138151893D01*
X348226737Y-138247132D02*
X348274356Y-138199513D01*
X348369594Y-138151893D01*
X348607689Y-138151893D01*
X348702927Y-138199513D01*
X348750546Y-138247132D01*
X348798165Y-138342370D01*
X348798165Y-138437608D01*
X348750546Y-138580465D01*
X348179118Y-139151893D01*
X348798165Y-139151893D01*
%TO.C,SW79*%
X366359075Y-139151893D02*
X366359075Y-138151893D01*
X366930503Y-139151893D01*
X366930503Y-138151893D01*
X367311456Y-138151893D02*
X367930503Y-138151893D01*
X367597170Y-138532846D01*
X367740027Y-138532846D01*
X367835265Y-138580465D01*
X367882884Y-138628084D01*
X367930503Y-138723322D01*
X367930503Y-138961417D01*
X367882884Y-139056655D01*
X367835265Y-139104274D01*
X367740027Y-139151893D01*
X367454313Y-139151893D01*
X367359075Y-139104274D01*
X367311456Y-139056655D01*
%TO.C,SW80*%
X328237772Y-120136475D02*
X328237772Y-119136475D01*
X328809200Y-120136475D01*
X328809200Y-119136475D01*
X329713962Y-119469809D02*
X329713962Y-120136475D01*
X329475867Y-119088856D02*
X329237772Y-119803142D01*
X329856819Y-119803142D01*
%TO.C,SW81*%
X347252820Y-120079544D02*
X347252820Y-119079544D01*
X347824248Y-120079544D01*
X347824248Y-119079544D01*
X348776629Y-119079544D02*
X348300439Y-119079544D01*
X348252820Y-119555735D01*
X348300439Y-119508116D01*
X348395677Y-119460497D01*
X348633772Y-119460497D01*
X348729010Y-119508116D01*
X348776629Y-119555735D01*
X348824248Y-119650973D01*
X348824248Y-119889068D01*
X348776629Y-119984306D01*
X348729010Y-120031925D01*
X348633772Y-120079544D01*
X348395677Y-120079544D01*
X348300439Y-120031925D01*
X348252820Y-119984306D01*
%TO.C,SW82*%
X366381730Y-120022612D02*
X366381730Y-119022612D01*
X366953158Y-120022612D01*
X366953158Y-119022612D01*
X367857920Y-119022612D02*
X367667444Y-119022612D01*
X367572206Y-119070232D01*
X367524587Y-119117851D01*
X367429349Y-119260708D01*
X367381730Y-119451184D01*
X367381730Y-119832136D01*
X367429349Y-119927374D01*
X367476968Y-119974993D01*
X367572206Y-120022612D01*
X367762682Y-120022612D01*
X367857920Y-119974993D01*
X367905539Y-119927374D01*
X367953158Y-119832136D01*
X367953158Y-119594041D01*
X367905539Y-119498803D01*
X367857920Y-119451184D01*
X367762682Y-119403565D01*
X367572206Y-119403565D01*
X367476968Y-119451184D01*
X367429349Y-119498803D01*
X367381730Y-119594041D01*
%TO.C,SW83*%
X328180820Y-101292243D02*
X328180820Y-100292243D01*
X328752248Y-101292243D01*
X328752248Y-100292243D01*
X329133201Y-100292243D02*
X329799867Y-100292243D01*
X329371296Y-101292243D01*
%TO.C,SW84*%
X347138936Y-101235311D02*
X347138936Y-100235311D01*
X347710364Y-101235311D01*
X347710364Y-100235311D01*
X348329412Y-100663883D02*
X348234174Y-100616264D01*
X348186555Y-100568645D01*
X348138936Y-100473407D01*
X348138936Y-100425788D01*
X348186555Y-100330550D01*
X348234174Y-100282931D01*
X348329412Y-100235311D01*
X348519888Y-100235311D01*
X348615126Y-100282931D01*
X348662745Y-100330550D01*
X348710364Y-100425788D01*
X348710364Y-100473407D01*
X348662745Y-100568645D01*
X348615126Y-100616264D01*
X348519888Y-100663883D01*
X348329412Y-100663883D01*
X348234174Y-100711502D01*
X348186555Y-100759121D01*
X348138936Y-100854359D01*
X348138936Y-101044835D01*
X348186555Y-101140073D01*
X348234174Y-101187692D01*
X348329412Y-101235311D01*
X348519888Y-101235311D01*
X348615126Y-101187692D01*
X348662745Y-101140073D01*
X348710364Y-101044835D01*
X348710364Y-100854359D01*
X348662745Y-100759121D01*
X348615126Y-100711502D01*
X348519888Y-100663883D01*
%TO.C,SW85*%
X366381709Y-101178380D02*
X366381709Y-100178380D01*
X366953137Y-101178380D01*
X366953137Y-100178380D01*
X367476947Y-101178380D02*
X367667423Y-101178380D01*
X367762661Y-101130761D01*
X367810280Y-101083142D01*
X367905518Y-100940285D01*
X367953137Y-100749809D01*
X367953137Y-100368857D01*
X367905518Y-100273619D01*
X367857899Y-100226000D01*
X367762661Y-100178380D01*
X367572185Y-100178380D01*
X367476947Y-100226000D01*
X367429328Y-100273619D01*
X367381709Y-100368857D01*
X367381709Y-100606952D01*
X367429328Y-100702190D01*
X367476947Y-100749809D01*
X367572185Y-100797428D01*
X367762661Y-100797428D01*
X367857899Y-100749809D01*
X367905518Y-100702190D01*
X367953137Y-100606952D01*
%TO.C,SW86*%
X385401379Y-139106875D02*
X385401379Y-138106875D01*
X385972807Y-139106875D01*
X385972807Y-138106875D01*
X386448998Y-138725923D02*
X387210903Y-138725923D01*
%TO.C,SW87*%
X366402992Y-158150280D02*
X366402992Y-157150280D01*
X366974420Y-158150280D01*
X366974420Y-157150280D01*
X367498230Y-158102661D02*
X367498230Y-158150280D01*
X367450611Y-158245519D01*
X367402992Y-158293138D01*
%TO.C,SW88*%
X347360688Y-158150280D02*
X347360688Y-157150280D01*
X347932116Y-158150280D01*
X347932116Y-157150280D01*
X348408307Y-158055042D02*
X348455926Y-158102661D01*
X348408307Y-158150280D01*
X348360688Y-158102661D01*
X348408307Y-158055042D01*
X348408307Y-158150280D01*
D12*
%TO.C,SW56*%
X84743677Y-95458642D02*
X84235677Y-95458642D01*
X84235677Y-96256928D02*
X84235677Y-94732928D01*
X84961391Y-94732928D01*
X85396819Y-94732928D02*
X86340248Y-94732928D01*
X85832248Y-95313500D01*
X86049962Y-95313500D01*
X86195105Y-95386071D01*
X86267677Y-95458642D01*
X86340248Y-95603785D01*
X86340248Y-95966642D01*
X86267677Y-96111785D01*
X86195105Y-96184357D01*
X86049962Y-96256928D01*
X85614534Y-96256928D01*
X85469391Y-96184357D01*
X85396819Y-96111785D01*
%TO.C,SW55*%
X59181342Y-95458642D02*
X58673342Y-95458642D01*
X58673342Y-96256928D02*
X58673342Y-94732928D01*
X59399056Y-94732928D01*
X59907056Y-94878071D02*
X59979627Y-94805500D01*
X60124770Y-94732928D01*
X60487627Y-94732928D01*
X60632770Y-94805500D01*
X60705342Y-94878071D01*
X60777913Y-95023214D01*
X60777913Y-95168357D01*
X60705342Y-95386071D01*
X59834484Y-96256928D01*
X60777913Y-96256928D01*
%TO.C,SW54*%
X33682914Y-95458642D02*
X33174914Y-95458642D01*
X33174914Y-96256928D02*
X33174914Y-94732928D01*
X33900628Y-94732928D01*
X35279485Y-96256928D02*
X34408628Y-96256928D01*
X34844056Y-96256928D02*
X34844056Y-94732928D01*
X34698914Y-94950642D01*
X34553771Y-95095785D01*
X34408628Y-95168357D01*
D11*
%TO.C,SW59*%
X28653740Y-120006664D02*
X28987073Y-120006664D01*
X29129930Y-120530473D02*
X28653740Y-120530473D01*
X28653740Y-119530473D01*
X29129930Y-119530473D01*
X29510883Y-120482854D02*
X29653740Y-120530473D01*
X29891835Y-120530473D01*
X29987073Y-120482854D01*
X30034692Y-120435235D01*
X30082311Y-120339997D01*
X30082311Y-120244759D01*
X30034692Y-120149521D01*
X29987073Y-120101902D01*
X29891835Y-120054283D01*
X29701359Y-120006664D01*
X29606121Y-119959045D01*
X29558502Y-119911426D01*
X29510883Y-119816188D01*
X29510883Y-119720950D01*
X29558502Y-119625712D01*
X29606121Y-119578093D01*
X29701359Y-119530473D01*
X29939454Y-119530473D01*
X30082311Y-119578093D01*
X31082311Y-120435235D02*
X31034692Y-120482854D01*
X30891835Y-120530473D01*
X30796597Y-120530473D01*
X30653740Y-120482854D01*
X30558502Y-120387616D01*
X30510883Y-120292378D01*
X30463264Y-120101902D01*
X30463264Y-119959045D01*
X30510883Y-119768569D01*
X30558502Y-119673331D01*
X30653740Y-119578093D01*
X30796597Y-119530473D01*
X30891835Y-119530473D01*
X31034692Y-119578093D01*
X31082311Y-119625712D01*
%TO.C,SW64*%
X293263330Y-148821994D02*
X292929997Y-148345804D01*
X292691902Y-148821994D02*
X292691902Y-147821994D01*
X293072854Y-147821994D01*
X293168092Y-147869614D01*
X293215711Y-147917233D01*
X293263330Y-148012471D01*
X293263330Y-148155328D01*
X293215711Y-148250566D01*
X293168092Y-148298185D01*
X293072854Y-148345804D01*
X292691902Y-148345804D01*
X293691902Y-148298185D02*
X294025235Y-148298185D01*
X294168092Y-148821994D02*
X293691902Y-148821994D01*
X293691902Y-147821994D01*
X294168092Y-147821994D01*
X294453807Y-147821994D02*
X295025235Y-147821994D01*
X294739521Y-148821994D02*
X294739521Y-147821994D01*
X295358568Y-147821994D02*
X295358568Y-148631518D01*
X295406187Y-148726756D01*
X295453807Y-148774375D01*
X295549045Y-148821994D01*
X295739521Y-148821994D01*
X295834759Y-148774375D01*
X295882378Y-148726756D01*
X295929997Y-148631518D01*
X295929997Y-147821994D01*
X296977616Y-148821994D02*
X296644283Y-148345804D01*
X296406187Y-148821994D02*
X296406187Y-147821994D01*
X296787140Y-147821994D01*
X296882378Y-147869614D01*
X296929997Y-147917233D01*
X296977616Y-148012471D01*
X296977616Y-148155328D01*
X296929997Y-148250566D01*
X296882378Y-148298185D01*
X296787140Y-148345804D01*
X296406187Y-148345804D01*
X297406187Y-148821994D02*
X297406187Y-147821994D01*
X297977616Y-148821994D01*
X297977616Y-147821994D01*
%TO.C,J3*%
X332576000Y-81323000D02*
X330043000Y-81323000D01*
X332576000Y-74773000D02*
X332576000Y-77557000D01*
X312076000Y-74773000D02*
X312076000Y-77557000D01*
X312076000Y-81323000D02*
X314609000Y-81323000D01*
X332576000Y-74773000D02*
X312076000Y-74773000D01*
X329548000Y-83159000D02*
G75*
G03*
X329548000Y-83159000I-68000J0D01*
G01*
%TD*%
M02*
