%TF.GenerationSoftware,KiCad,Pcbnew,(6.0.0-rc1-114-gb471945224)*%
%TF.CreationDate,2022-04-25T13:04:53+02:00*%
%TF.ProjectId,HB-F1XD-keyboard,48422d46-3158-4442-9d6b-6579626f6172,1*%
%TF.SameCoordinates,Original*%
%TF.FileFunction,Paste,Top*%
%TF.FilePolarity,Positive*%
%FSLAX46Y46*%
G04 Gerber Fmt 4.6, Leading zero omitted, Abs format (unit mm)*
G04 Created by KiCad (PCBNEW (6.0.0-rc1-114-gb471945224)) date 2022-04-25 13:04:53*
%MOMM*%
%LPD*%
G01*
G04 APERTURE LIST*
%ADD10R,0.300000X1.200000*%
%ADD11R,2.400000X2.400000*%
G04 APERTURE END LIST*
D10*
%TO.C,J2*%
X321489550Y-62353000D03*
X321989550Y-62353000D03*
X322489550Y-62353000D03*
X322989550Y-62353000D03*
X323489550Y-62353000D03*
X323989550Y-62353000D03*
X324489550Y-62353000D03*
X324989550Y-62353000D03*
X325489550Y-62353000D03*
X325989550Y-62353000D03*
X326489550Y-62353000D03*
X326989550Y-62353000D03*
X327489550Y-62353000D03*
X327989550Y-62353000D03*
X328489550Y-62353000D03*
X328989550Y-62353000D03*
X329489550Y-62353000D03*
X329989550Y-62353000D03*
X330489550Y-62353000D03*
X330989550Y-62353000D03*
X331489550Y-62353000D03*
X331989550Y-62353000D03*
X332489550Y-62353000D03*
X332989550Y-62353000D03*
X333489550Y-62353000D03*
X333989550Y-62353000D03*
X334489550Y-62353000D03*
X334989550Y-62353000D03*
X335489550Y-62353000D03*
X335989550Y-62353000D03*
D11*
X319389550Y-65053000D03*
X338089550Y-65053000D03*
%TD*%
D10*
%TO.C,J3*%
X329576000Y-81723000D03*
X329076000Y-81723000D03*
X328576000Y-81723000D03*
X328076000Y-81723000D03*
X327576000Y-81723000D03*
X327076000Y-81723000D03*
X326576000Y-81723000D03*
X326076000Y-81723000D03*
X325576000Y-81723000D03*
X325076000Y-81723000D03*
X324576000Y-81723000D03*
X324076000Y-81723000D03*
X323576000Y-81723000D03*
X323076000Y-81723000D03*
X322576000Y-81723000D03*
X322076000Y-81723000D03*
X321576000Y-81723000D03*
X321076000Y-81723000D03*
X320576000Y-81723000D03*
X320076000Y-81723000D03*
X319576000Y-81723000D03*
X319076000Y-81723000D03*
X318576000Y-81723000D03*
X318076000Y-81723000D03*
X317576000Y-81723000D03*
X317076000Y-81723000D03*
X316576000Y-81723000D03*
X316076000Y-81723000D03*
X315576000Y-81723000D03*
X315076000Y-81723000D03*
D11*
X331676000Y-79023000D03*
X312976000Y-79023000D03*
%TD*%
M02*
