%TF.GenerationSoftware,KiCad,Pcbnew,(6.0.0-rc1-114-gb471945224)*%
%TF.CreationDate,2023-01-31T08:43:45+01:00*%
%TF.ProjectId,HB-F1XD-keyboard,48422d46-3158-4442-9d6b-6579626f6172,1*%
%TF.SameCoordinates,Original*%
%TF.FileFunction,Legend,Top*%
%TF.FilePolarity,Positive*%
%FSLAX46Y46*%
G04 Gerber Fmt 4.6, Leading zero omitted, Abs format (unit mm)*
G04 Created by KiCad (PCBNEW (6.0.0-rc1-114-gb471945224)) date 2023-01-31 08:43:45*
%MOMM*%
%LPD*%
G01*
G04 APERTURE LIST*
%ADD10C,0.150000*%
%ADD11C,0.254000*%
%ADD12C,0.200000*%
G04 APERTURE END LIST*
D10*
X300188095Y-68457142D02*
X300140476Y-68504761D01*
X299997619Y-68552380D01*
X299902380Y-68552380D01*
X299759523Y-68504761D01*
X299664285Y-68409523D01*
X299616666Y-68314285D01*
X299569047Y-68123809D01*
X299569047Y-67980952D01*
X299616666Y-67790476D01*
X299664285Y-67695238D01*
X299759523Y-67600000D01*
X299902380Y-67552380D01*
X299997619Y-67552380D01*
X300140476Y-67600000D01*
X300188095Y-67647619D01*
X301188095Y-68457142D02*
X301140476Y-68504761D01*
X300997619Y-68552380D01*
X300902380Y-68552380D01*
X300759523Y-68504761D01*
X300664285Y-68409523D01*
X300616666Y-68314285D01*
X300569047Y-68123809D01*
X300569047Y-67980952D01*
X300616666Y-67790476D01*
X300664285Y-67695238D01*
X300759523Y-67600000D01*
X300902380Y-67552380D01*
X300997619Y-67552380D01*
X301140476Y-67600000D01*
X301188095Y-67647619D01*
X301616666Y-68171428D02*
X302378571Y-68171428D01*
X303188095Y-68028571D02*
X303330952Y-68076190D01*
X303378571Y-68123809D01*
X303426190Y-68219047D01*
X303426190Y-68361904D01*
X303378571Y-68457142D01*
X303330952Y-68504761D01*
X303235714Y-68552380D01*
X302854761Y-68552380D01*
X302854761Y-67552380D01*
X303188095Y-67552380D01*
X303283333Y-67600000D01*
X303330952Y-67647619D01*
X303378571Y-67742857D01*
X303378571Y-67838095D01*
X303330952Y-67933333D01*
X303283333Y-67980952D01*
X303188095Y-68028571D01*
X302854761Y-68028571D01*
X304045238Y-68076190D02*
X304045238Y-68552380D01*
X303711904Y-67552380D02*
X304045238Y-68076190D01*
X304378571Y-67552380D01*
X304711904Y-68171428D02*
X305473809Y-68171428D01*
X305950000Y-68552380D02*
X305950000Y-67552380D01*
X306521428Y-68552380D01*
X306521428Y-67552380D01*
X307569047Y-68457142D02*
X307521428Y-68504761D01*
X307378571Y-68552380D01*
X307283333Y-68552380D01*
X307140476Y-68504761D01*
X307045238Y-68409523D01*
X306997619Y-68314285D01*
X306950000Y-68123809D01*
X306950000Y-67980952D01*
X306997619Y-67790476D01*
X307045238Y-67695238D01*
X307140476Y-67600000D01*
X307283333Y-67552380D01*
X307378571Y-67552380D01*
X307521428Y-67600000D01*
X307569047Y-67647619D01*
X308759523Y-68171428D02*
X309521428Y-68171428D01*
X310664285Y-67885714D02*
X310902380Y-68552380D01*
X311140476Y-67885714D01*
X311473809Y-67647619D02*
X311521428Y-67600000D01*
X311616666Y-67552380D01*
X311854761Y-67552380D01*
X311950000Y-67600000D01*
X311997619Y-67647619D01*
X312045238Y-67742857D01*
X312045238Y-67838095D01*
X311997619Y-67980952D01*
X311426190Y-68552380D01*
X312045238Y-68552380D01*
X312664285Y-67552380D02*
X312759523Y-67552380D01*
X312854761Y-67600000D01*
X312902380Y-67647619D01*
X312950000Y-67742857D01*
X312997619Y-67933333D01*
X312997619Y-68171428D01*
X312950000Y-68361904D01*
X312902380Y-68457142D01*
X312854761Y-68504761D01*
X312759523Y-68552380D01*
X312664285Y-68552380D01*
X312569047Y-68504761D01*
X312521428Y-68457142D01*
X312473809Y-68361904D01*
X312426190Y-68171428D01*
X312426190Y-67933333D01*
X312473809Y-67742857D01*
X312521428Y-67647619D01*
X312569047Y-67600000D01*
X312664285Y-67552380D01*
X313378571Y-67647619D02*
X313426190Y-67600000D01*
X313521428Y-67552380D01*
X313759523Y-67552380D01*
X313854761Y-67600000D01*
X313902380Y-67647619D01*
X313950000Y-67742857D01*
X313950000Y-67838095D01*
X313902380Y-67980952D01*
X313330952Y-68552380D01*
X313950000Y-68552380D01*
X314902380Y-68552380D02*
X314330952Y-68552380D01*
X314616666Y-68552380D02*
X314616666Y-67552380D01*
X314521428Y-67695238D01*
X314426190Y-67790476D01*
X314330952Y-67838095D01*
X315330952Y-68457142D02*
X315378571Y-68504761D01*
X315330952Y-68552380D01*
X315283333Y-68504761D01*
X315330952Y-68457142D01*
X315330952Y-68552380D01*
X315759523Y-67647619D02*
X315807142Y-67600000D01*
X315902380Y-67552380D01*
X316140476Y-67552380D01*
X316235714Y-67600000D01*
X316283333Y-67647619D01*
X316330952Y-67742857D01*
X316330952Y-67838095D01*
X316283333Y-67980952D01*
X315711904Y-68552380D01*
X316330952Y-68552380D01*
X352447619Y-68552380D02*
X352447619Y-67885714D01*
X352447619Y-68076190D02*
X352495238Y-67980952D01*
X352542857Y-67933333D01*
X352638095Y-67885714D01*
X352733333Y-67885714D01*
X353447619Y-68504761D02*
X353352380Y-68552380D01*
X353161904Y-68552380D01*
X353066666Y-68504761D01*
X353019047Y-68409523D01*
X353019047Y-68028571D01*
X353066666Y-67933333D01*
X353161904Y-67885714D01*
X353352380Y-67885714D01*
X353447619Y-67933333D01*
X353495238Y-68028571D01*
X353495238Y-68123809D01*
X353019047Y-68219047D01*
X354352380Y-68552380D02*
X354352380Y-68028571D01*
X354304761Y-67933333D01*
X354209523Y-67885714D01*
X354019047Y-67885714D01*
X353923809Y-67933333D01*
X354352380Y-68504761D02*
X354257142Y-68552380D01*
X354019047Y-68552380D01*
X353923809Y-68504761D01*
X353876190Y-68409523D01*
X353876190Y-68314285D01*
X353923809Y-68219047D01*
X354019047Y-68171428D01*
X354257142Y-68171428D01*
X354352380Y-68123809D01*
X354828571Y-68552380D02*
X354828571Y-67885714D01*
X354828571Y-68076190D02*
X354876190Y-67980952D01*
X354923809Y-67933333D01*
X355019047Y-67885714D01*
X355114285Y-67885714D01*
X356066666Y-67885714D02*
X356447619Y-67885714D01*
X356209523Y-68552380D02*
X356209523Y-67695238D01*
X356257142Y-67600000D01*
X356352380Y-67552380D01*
X356447619Y-67552380D01*
X357209523Y-68552380D02*
X357209523Y-68028571D01*
X357161904Y-67933333D01*
X357066666Y-67885714D01*
X356876190Y-67885714D01*
X356780952Y-67933333D01*
X357209523Y-68504761D02*
X357114285Y-68552380D01*
X356876190Y-68552380D01*
X356780952Y-68504761D01*
X356733333Y-68409523D01*
X356733333Y-68314285D01*
X356780952Y-68219047D01*
X356876190Y-68171428D01*
X357114285Y-68171428D01*
X357209523Y-68123809D01*
X358114285Y-68504761D02*
X358019047Y-68552380D01*
X357828571Y-68552380D01*
X357733333Y-68504761D01*
X357685714Y-68457142D01*
X357638095Y-68361904D01*
X357638095Y-68076190D01*
X357685714Y-67980952D01*
X357733333Y-67933333D01*
X357828571Y-67885714D01*
X358019047Y-67885714D01*
X358114285Y-67933333D01*
X358542857Y-68552380D02*
X358542857Y-67885714D01*
X358542857Y-67552380D02*
X358495238Y-67600000D01*
X358542857Y-67647619D01*
X358590476Y-67600000D01*
X358542857Y-67552380D01*
X358542857Y-67647619D01*
X359019047Y-67885714D02*
X359019047Y-68552380D01*
X359019047Y-67980952D02*
X359066666Y-67933333D01*
X359161904Y-67885714D01*
X359304761Y-67885714D01*
X359400000Y-67933333D01*
X359447619Y-68028571D01*
X359447619Y-68552380D01*
X360352380Y-67885714D02*
X360352380Y-68695238D01*
X360304761Y-68790476D01*
X360257142Y-68838095D01*
X360161904Y-68885714D01*
X360019047Y-68885714D01*
X359923809Y-68838095D01*
X360352380Y-68504761D02*
X360257142Y-68552380D01*
X360066666Y-68552380D01*
X359971428Y-68504761D01*
X359923809Y-68457142D01*
X359876190Y-68361904D01*
X359876190Y-68076190D01*
X359923809Y-67980952D01*
X359971428Y-67933333D01*
X360066666Y-67885714D01*
X360257142Y-67885714D01*
X360352380Y-67933333D01*
D11*
%TO.C,J2*%
X327907266Y-67074253D02*
X327907266Y-67981396D01*
X327846790Y-68162825D01*
X327725838Y-68283777D01*
X327544409Y-68344253D01*
X327423457Y-68344253D01*
X328451552Y-67195206D02*
X328512028Y-67134730D01*
X328632980Y-67074253D01*
X328935361Y-67074253D01*
X329056314Y-67134730D01*
X329116790Y-67195206D01*
X329177266Y-67316158D01*
X329177266Y-67437110D01*
X329116790Y-67618539D01*
X328391076Y-68344253D01*
X329177266Y-68344253D01*
D10*
%TO.C,J1*%
X328025216Y-57252380D02*
X328025216Y-57966666D01*
X327977597Y-58109523D01*
X327882359Y-58204761D01*
X327739502Y-58252380D01*
X327644264Y-58252380D01*
X329025216Y-58252380D02*
X328453788Y-58252380D01*
X328739502Y-58252380D02*
X328739502Y-57252380D01*
X328644264Y-57395238D01*
X328549026Y-57490476D01*
X328453788Y-57538095D01*
D12*
%TO.C,J2*%
X318489550Y-69303000D02*
X318489550Y-66519000D01*
X338989550Y-69303000D02*
X338989550Y-66519000D01*
X338989550Y-62753000D02*
X336456550Y-62753000D01*
X318489550Y-69303000D02*
X338989550Y-69303000D01*
X318489550Y-62753000D02*
X321022550Y-62753000D01*
X321653550Y-60917000D02*
G75*
G03*
X321653550Y-60917000I-68000J0D01*
G01*
%TD*%
M02*
