%TF.GenerationSoftware,KiCad,Pcbnew,(6.0.0-rc1-114-gb471945224)*%
%TF.CreationDate,2023-01-31T08:43:44+01:00*%
%TF.ProjectId,HB-F1XD-keyboard,48422d46-3158-4442-9d6b-6579626f6172,1*%
%TF.SameCoordinates,Original*%
%TF.FileFunction,Copper,L1,Top*%
%TF.FilePolarity,Positive*%
%FSLAX46Y46*%
G04 Gerber Fmt 4.6, Leading zero omitted, Abs format (unit mm)*
G04 Created by KiCad (PCBNEW (6.0.0-rc1-114-gb471945224)) date 2023-01-31 08:43:44*
%MOMM*%
%LPD*%
G01*
G04 APERTURE LIST*
%TA.AperFunction,SMDPad,CuDef*%
%ADD10R,0.300000X1.200000*%
%TD*%
%TA.AperFunction,SMDPad,CuDef*%
%ADD11R,2.400000X2.400000*%
%TD*%
%TA.AperFunction,ConnectorPad*%
%ADD12R,1.780000X7.620000*%
%TD*%
%TA.AperFunction,Conductor*%
%ADD13C,0.250000*%
%TD*%
G04 APERTURE END LIST*
D10*
%TO.P,J2,1,Pin_1*%
%TO.N,Net-(J1-Pad1)*%
X321489550Y-62353000D03*
%TO.P,J2,2,Pin_2*%
%TO.N,Net-(J1-Pad2)*%
X321989550Y-62353000D03*
%TO.P,J2,3,Pin_3*%
%TO.N,Net-(J1-Pad3)*%
X322489550Y-62353000D03*
%TO.P,J2,4,Pin_4*%
%TO.N,Net-(J1-Pad4)*%
X322989550Y-62353000D03*
%TO.P,J2,5,Pin_5*%
%TO.N,Net-(J1-Pad5)*%
X323489550Y-62353000D03*
%TO.P,J2,6,Pin_6*%
%TO.N,Net-(J1-Pad6)*%
X323989550Y-62353000D03*
%TO.P,J2,7,Pin_7*%
%TO.N,Net-(J1-Pad7)*%
X324489550Y-62353000D03*
%TO.P,J2,8,Pin_8*%
%TO.N,Net-(J1-Pad8)*%
X324989550Y-62353000D03*
%TO.P,J2,9,Pin_9*%
%TO.N,Net-(J1-Pad9)*%
X325489550Y-62353000D03*
%TO.P,J2,10,Pin_10*%
%TO.N,Net-(J1-Pad10)*%
X325989550Y-62353000D03*
%TO.P,J2,11,Pin_11*%
%TO.N,Net-(J1-Pad11)*%
X326489550Y-62353000D03*
%TO.P,J2,12,Pin_12*%
%TO.N,Net-(J1-Pad12)*%
X326989550Y-62353000D03*
%TO.P,J2,13,Pin_13*%
%TO.N,Net-(J1-Pad13)*%
X327489550Y-62353000D03*
%TO.P,J2,14,Pin_14*%
%TO.N,Net-(J1-Pad14)*%
X327989550Y-62353000D03*
%TO.P,J2,15,Pin_15*%
%TO.N,Net-(J1-Pad15)*%
X328489550Y-62353000D03*
%TO.P,J2,16,Pin_16*%
%TO.N,Net-(J1-Pad16)*%
X328989550Y-62353000D03*
%TO.P,J2,17,Pin_17*%
%TO.N,Net-(J1-Pad17)*%
X329489550Y-62353000D03*
%TO.P,J2,18,Pin_18*%
%TO.N,Net-(J1-Pad18)*%
X329989550Y-62353000D03*
%TO.P,J2,19,Pin_19*%
%TO.N,Net-(J1-Pad19)*%
X330489550Y-62353000D03*
%TO.P,J2,20,Pin_20*%
%TO.N,Net-(J1-Pad20)*%
X330989550Y-62353000D03*
%TO.P,J2,21,Pin_21*%
%TO.N,Net-(J1-Pad21)*%
X331489550Y-62353000D03*
%TO.P,J2,22,Pin_22*%
%TO.N,Net-(J1-Pad22)*%
X331989550Y-62353000D03*
%TO.P,J2,23,Pin_23*%
%TO.N,Net-(J1-Pad23)*%
X332489550Y-62353000D03*
%TO.P,J2,24,Pin_24*%
%TO.N,Net-(J1-Pad24)*%
X332989550Y-62353000D03*
%TO.P,J2,25,Pin_25*%
%TO.N,unconnected-(J2-Pad25)*%
X333489550Y-62353000D03*
%TO.P,J2,26,Pin_26*%
%TO.N,unconnected-(J2-Pad26)*%
X333989550Y-62353000D03*
%TO.P,J2,27,Pin_27*%
%TO.N,unconnected-(J2-Pad27)*%
X334489550Y-62353000D03*
%TO.P,J2,28,Pin_28*%
%TO.N,unconnected-(J2-Pad28)*%
X334989550Y-62353000D03*
%TO.P,J2,29,Pin_29*%
%TO.N,unconnected-(J2-Pad29)*%
X335489550Y-62353000D03*
%TO.P,J2,30,Pin_30*%
%TO.N,unconnected-(J2-Pad30)*%
X335989550Y-62353000D03*
D11*
%TO.P,J2,31*%
%TO.N,N/C*%
X319389550Y-65053000D03*
%TO.P,J2,32*%
X338089550Y-65053000D03*
%TD*%
D12*
%TO.P,J1,1,Pin_1*%
%TO.N,Net-(J1-Pad1)*%
X301053550Y-51450000D03*
%TO.P,J1,2,Pin_2*%
%TO.N,Net-(J1-Pad2)*%
X303593550Y-51450000D03*
%TO.P,J1,3,Pin_3*%
%TO.N,Net-(J1-Pad3)*%
X306133550Y-51450000D03*
%TO.P,J1,4,Pin_4*%
%TO.N,Net-(J1-Pad4)*%
X308673550Y-51450000D03*
%TO.P,J1,5,Pin_5*%
%TO.N,Net-(J1-Pad5)*%
X311213550Y-51450000D03*
%TO.P,J1,6,Pin_6*%
%TO.N,Net-(J1-Pad6)*%
X313753550Y-51450000D03*
%TO.P,J1,7,Pin_7*%
%TO.N,Net-(J1-Pad7)*%
X316293550Y-51450000D03*
%TO.P,J1,8,Pin_8*%
%TO.N,Net-(J1-Pad8)*%
X318833550Y-51450000D03*
%TO.P,J1,9,Pin_9*%
%TO.N,Net-(J1-Pad9)*%
X321373550Y-51450000D03*
%TO.P,J1,10,Pin_10*%
%TO.N,Net-(J1-Pad10)*%
X323913550Y-51450000D03*
%TO.P,J1,11,Pin_11*%
%TO.N,Net-(J1-Pad11)*%
X326453550Y-51450000D03*
%TO.P,J1,12,Pin_12*%
%TO.N,Net-(J1-Pad12)*%
X328993550Y-51450000D03*
%TO.P,J1,13,Pin_13*%
%TO.N,Net-(J1-Pad13)*%
X331533550Y-51450000D03*
%TO.P,J1,14,Pin_14*%
%TO.N,Net-(J1-Pad14)*%
X334073550Y-51450000D03*
%TO.P,J1,15,Pin_15*%
%TO.N,Net-(J1-Pad15)*%
X336613550Y-51450000D03*
%TO.P,J1,16,Pin_16*%
%TO.N,Net-(J1-Pad16)*%
X339153550Y-51450000D03*
%TO.P,J1,17,Pin_17*%
%TO.N,Net-(J1-Pad17)*%
X341693550Y-51450000D03*
%TO.P,J1,18,Pin_18*%
%TO.N,Net-(J1-Pad18)*%
X344233550Y-51450000D03*
%TO.P,J1,19,Pin_19*%
%TO.N,Net-(J1-Pad19)*%
X346773550Y-51450000D03*
%TO.P,J1,20,Pin_20*%
%TO.N,Net-(J1-Pad20)*%
X349313550Y-51450000D03*
%TO.P,J1,21,Pin_21*%
%TO.N,Net-(J1-Pad21)*%
X351853550Y-51450000D03*
%TO.P,J1,22,Pin_22*%
%TO.N,Net-(J1-Pad22)*%
X354393550Y-51450000D03*
%TO.P,J1,23,Pin_23*%
%TO.N,Net-(J1-Pad23)*%
X356933550Y-51450000D03*
%TO.P,J1,24,Pin_24*%
%TO.N,Net-(J1-Pad24)*%
X359473550Y-51450000D03*
%TD*%
D13*
%TO.N,Net-(J1-Pad1)*%
X301053550Y-57603550D02*
X304400000Y-60950000D01*
X321291470Y-60950000D02*
X321489550Y-61148080D01*
X304400000Y-60950000D02*
X321291470Y-60950000D01*
X301053550Y-57603550D02*
X301053550Y-51450000D01*
X321489550Y-61148080D02*
X321489550Y-62353000D01*
%TO.N,Net-(J1-Pad2)*%
X303593550Y-57543550D02*
X306500000Y-60450000D01*
X303593550Y-57543550D02*
X303593550Y-51450000D01*
X306500000Y-60450000D02*
X321567806Y-60450000D01*
X321567806Y-60450000D02*
X321989550Y-60871744D01*
X321989550Y-60871744D02*
X321989550Y-62353000D01*
%TO.N,Net-(J1-Pad3)*%
X306133550Y-57483550D02*
X308650480Y-60000480D01*
X306133550Y-57483550D02*
X306133550Y-51450000D01*
X308650480Y-60000480D02*
X321754004Y-60000480D01*
X321754004Y-60000480D02*
X322489550Y-60736026D01*
X322489550Y-60736026D02*
X322489550Y-62353000D01*
%TO.N,Net-(J1-Pad4)*%
X322989550Y-60600308D02*
X322989550Y-62353000D01*
X308673550Y-57473550D02*
X310700000Y-59500000D01*
X308673550Y-57473550D02*
X308673550Y-51450000D01*
X321889242Y-59500000D02*
X322989550Y-60600308D01*
X310700000Y-59500000D02*
X321889242Y-59500000D01*
%TO.N,Net-(J1-Pad5)*%
X323489550Y-60464590D02*
X322075440Y-59050480D01*
X311213550Y-57513550D02*
X311213550Y-51450000D01*
X312750480Y-59050480D02*
X311213550Y-57513550D01*
X323489550Y-62353000D02*
X323489550Y-60464590D01*
X322075440Y-59050480D02*
X312750480Y-59050480D01*
%TO.N,Net-(J1-Pad6)*%
X313753550Y-57503550D02*
X313753550Y-51450000D01*
X314850960Y-58600960D02*
X313753550Y-57503550D01*
X323989550Y-62353000D02*
X323989550Y-60328872D01*
X323989550Y-60328872D02*
X322261637Y-58600960D01*
X322261637Y-58600960D02*
X314850960Y-58600960D01*
%TO.N,Net-(J1-Pad7)*%
X324489550Y-60193156D02*
X322447834Y-58151440D01*
X316901440Y-58151440D02*
X316293550Y-57543550D01*
X324489550Y-62353000D02*
X324489550Y-60193156D01*
X322447834Y-58151440D02*
X316901440Y-58151440D01*
X316293550Y-57543550D02*
X316293550Y-51450000D01*
%TO.N,Net-(J1-Pad8)*%
X322634031Y-57701920D02*
X318833550Y-57701920D01*
X318833550Y-57701920D02*
X318833550Y-51450000D01*
X324989550Y-60057439D02*
X322634031Y-57701920D01*
X324989550Y-62353000D02*
X324989550Y-60057439D01*
%TO.N,Net-(J1-Pad9)*%
X322820229Y-57252400D02*
X325489550Y-59921721D01*
X321373550Y-57252400D02*
X322820229Y-57252400D01*
X325489550Y-59921721D02*
X325489550Y-62353000D01*
X321373550Y-57252400D02*
X321373550Y-51450000D01*
%TO.N,Net-(J1-Pad10)*%
X323913550Y-57710000D02*
X325989550Y-59786000D01*
X325989550Y-59786000D02*
X325989550Y-62353000D01*
X323913550Y-57710000D02*
X323913550Y-51450000D01*
%TO.N,Net-(J1-Pad11)*%
X326489550Y-62353000D02*
X326489550Y-51486000D01*
X326453550Y-51450000D02*
X326515039Y-51511489D01*
X326489550Y-51486000D02*
X326453550Y-51450000D01*
X326453550Y-47804000D02*
X326489550Y-47840000D01*
%TO.N,Net-(J1-Pad12)*%
X328993550Y-57821364D02*
X328993550Y-51450000D01*
X326989550Y-59825364D02*
X326989550Y-62353000D01*
X328993550Y-57821364D02*
X326989550Y-59825364D01*
%TO.N,Net-(J1-Pad13)*%
X327489550Y-59961082D02*
X327489550Y-62353000D01*
X331533550Y-55917082D02*
X327489550Y-59961082D01*
X331533550Y-55917082D02*
X331533550Y-51450000D01*
%TO.N,Net-(J1-Pad14)*%
X334073550Y-56244480D02*
X334073550Y-51450000D01*
X327989550Y-60096800D02*
X327989550Y-62353000D01*
X331841870Y-56244480D02*
X327989550Y-60096800D01*
X334073550Y-56244480D02*
X331841870Y-56244480D01*
%TO.N,Net-(J1-Pad15)*%
X336613550Y-56948000D02*
X331774068Y-56948000D01*
X336613550Y-56948000D02*
X336613550Y-51450000D01*
X331774068Y-56948000D02*
X328489550Y-60232518D01*
X328489550Y-60232518D02*
X328489550Y-62353000D01*
%TO.N,Net-(J1-Pad16)*%
X331941945Y-57415840D02*
X328989550Y-60368235D01*
X339153550Y-57415840D02*
X339153550Y-51450000D01*
X339153550Y-57415840D02*
X331941945Y-57415840D01*
X328989550Y-60368235D02*
X328989550Y-62353000D01*
%TO.N,Net-(J1-Pad17)*%
X341693550Y-57865360D02*
X341693550Y-51450000D01*
X332128143Y-57865360D02*
X329489550Y-60503953D01*
X341693550Y-57865360D02*
X332128143Y-57865360D01*
X329489550Y-60503953D02*
X329489550Y-62353000D01*
%TO.N,Net-(J1-Pad18)*%
X332314341Y-58314880D02*
X329989550Y-60639671D01*
X329989550Y-60639671D02*
X329989550Y-62353000D01*
X344233550Y-58314880D02*
X344233550Y-51450000D01*
X344233550Y-58314880D02*
X332314341Y-58314880D01*
%TO.N,Net-(J1-Pad19)*%
X330489550Y-60775389D02*
X330489550Y-62353000D01*
X332500539Y-58764400D02*
X330489550Y-60775389D01*
X346773550Y-58764400D02*
X332500539Y-58764400D01*
X346773550Y-58764400D02*
X346773550Y-51450000D01*
%TO.N,Net-(J1-Pad20)*%
X348571630Y-59213920D02*
X332686736Y-59213920D01*
X332686736Y-59213920D02*
X330989550Y-60911106D01*
X349313550Y-58472000D02*
X349313550Y-51450000D01*
X349313550Y-58472000D02*
X348571630Y-59213920D01*
X330989550Y-60911106D02*
X330989550Y-62353000D01*
%TO.N,Net-(J1-Pad21)*%
X351853550Y-58726000D02*
X350916110Y-59663440D01*
X350916110Y-59663440D02*
X332872934Y-59663440D01*
X331489550Y-61046824D02*
X331489550Y-62353000D01*
X332872934Y-59663440D02*
X331489550Y-61046824D01*
X351853550Y-58726000D02*
X351853550Y-51450000D01*
%TO.N,Net-(J1-Pad22)*%
X333059132Y-60112960D02*
X331989550Y-61182542D01*
X331989550Y-61182542D02*
X331989550Y-62353000D01*
X353006590Y-60112960D02*
X333059132Y-60112960D01*
X354393550Y-58726000D02*
X353006590Y-60112960D01*
X354393550Y-58726000D02*
X354393550Y-51450000D01*
%TO.N,Net-(J1-Pad23)*%
X332489550Y-61318260D02*
X332489550Y-62353000D01*
X356933550Y-58726000D02*
X355097070Y-60562480D01*
X355097070Y-60562480D02*
X333245330Y-60562480D01*
X333245330Y-60562480D02*
X332489550Y-61318260D01*
X356933550Y-58726000D02*
X356933550Y-51450000D01*
%TO.N,Net-(J1-Pad24)*%
X357314550Y-61012000D02*
X359473550Y-58853000D01*
X333431528Y-61012000D02*
X357314550Y-61012000D01*
X332989550Y-61453978D02*
X333431528Y-61012000D01*
X332989550Y-62353000D02*
X332989550Y-61453978D01*
X359473550Y-58853000D02*
X359473550Y-51450000D01*
%TD*%
M02*
