%TF.GenerationSoftware,KiCad,Pcbnew,(6.0.0-rc1-114-gb471945224)*%
%TF.CreationDate,2023-01-31T08:43:45+01:00*%
%TF.ProjectId,HB-F1XD-keyboard,48422d46-3158-4442-9d6b-6579626f6172,1*%
%TF.SameCoordinates,Original*%
%TF.FileFunction,Soldermask,Top*%
%TF.FilePolarity,Negative*%
%FSLAX46Y46*%
G04 Gerber Fmt 4.6, Leading zero omitted, Abs format (unit mm)*
G04 Created by KiCad (PCBNEW (6.0.0-rc1-114-gb471945224)) date 2023-01-31 08:43:45*
%MOMM*%
%LPD*%
G01*
G04 APERTURE LIST*
%ADD10R,0.300000X1.200000*%
%ADD11R,2.400000X2.400000*%
%ADD12R,1.780000X7.620000*%
G04 APERTURE END LIST*
D10*
%TO.C,J2*%
X321489550Y-62353000D03*
X321989550Y-62353000D03*
X322489550Y-62353000D03*
X322989550Y-62353000D03*
X323489550Y-62353000D03*
X323989550Y-62353000D03*
X324489550Y-62353000D03*
X324989550Y-62353000D03*
X325489550Y-62353000D03*
X325989550Y-62353000D03*
X326489550Y-62353000D03*
X326989550Y-62353000D03*
X327489550Y-62353000D03*
X327989550Y-62353000D03*
X328489550Y-62353000D03*
X328989550Y-62353000D03*
X329489550Y-62353000D03*
X329989550Y-62353000D03*
X330489550Y-62353000D03*
X330989550Y-62353000D03*
X331489550Y-62353000D03*
X331989550Y-62353000D03*
X332489550Y-62353000D03*
X332989550Y-62353000D03*
X333489550Y-62353000D03*
X333989550Y-62353000D03*
X334489550Y-62353000D03*
X334989550Y-62353000D03*
X335489550Y-62353000D03*
X335989550Y-62353000D03*
D11*
X319389550Y-65053000D03*
X338089550Y-65053000D03*
%TD*%
D12*
%TO.C,J1*%
X301053550Y-51450000D03*
X303593550Y-51450000D03*
X306133550Y-51450000D03*
X308673550Y-51450000D03*
X311213550Y-51450000D03*
X313753550Y-51450000D03*
X316293550Y-51450000D03*
X318833550Y-51450000D03*
X321373550Y-51450000D03*
X323913550Y-51450000D03*
X326453550Y-51450000D03*
X328993550Y-51450000D03*
X331533550Y-51450000D03*
X334073550Y-51450000D03*
X336613550Y-51450000D03*
X339153550Y-51450000D03*
X341693550Y-51450000D03*
X344233550Y-51450000D03*
X346773550Y-51450000D03*
X349313550Y-51450000D03*
X351853550Y-51450000D03*
X354393550Y-51450000D03*
X356933550Y-51450000D03*
X359473550Y-51450000D03*
%TD*%
M02*
